<svg width="38" height="37" viewBox="0 0 38 37" fill="none" xmlns="http://www.w3.org/2000/svg">
<path d="M18.5191 0.814453C8.25642 0.814453 0 8.75683 0 18.6443C0 21.805 0.848791 24.7226 2.31488 27.3971C2.46921 27.7213 2.54637 28.1265 2.46921 28.4507L0.771628 34.0428C0.462977 35.0963 1.38893 35.9878 2.39205 35.6636L7.79345 33.7186C8.17926 33.5565 8.56507 33.6375 8.87372 33.8807C11.7287 35.5826 15.0468 36.5551 18.5962 36.5551C28.8589 36.5551 37.1153 28.6128 37.1153 18.7253C36.961 8.75683 28.7046 0.814453 18.5191 0.814453ZM27.3928 14.6731L17.9789 24.3984C17.5931 24.8037 17.2073 24.9658 16.6672 24.9658C16.2042 24.9658 15.7412 24.8037 15.3554 24.3984L10.8028 19.6979C10.417 19.2926 10.417 18.7253 10.8028 18.4011L12.1146 17.1044C12.5004 16.6992 13.0405 16.6992 13.4263 17.1044L16.6672 20.5083L24.7693 12.0797C25.1551 11.6744 25.6952 11.6744 26.081 12.0797L27.3928 13.3764C27.7015 13.7006 27.7015 14.3489 27.3928 14.6731Z" fill="#0F6E9B"/>
</svg>
