<svg width="36" height="50" viewBox="0 0 36 50" fill="none" xmlns="http://www.w3.org/2000/svg">
<path d="M13.0734 2.82886V6.27728C13.0734 7.65678 13.0734 8.34654 13.3418 8.87343C13.5781 9.3369 13.9547 9.71371 14.4182 9.94988C14.9451 10.2183 15.6348 10.2183 17.0144 10.2183H18.9849C20.3646 10.2183 21.0542 10.2183 21.5811 9.94988C22.0447 9.71371 22.4213 9.3369 22.6575 8.87343C22.926 8.34654 22.926 7.65678 22.926 6.27728V2.82886M11.1028 47.1658H24.8965C27.6555 47.1658 29.0351 47.1658 30.0889 46.6288C31.0158 46.1566 31.7695 45.4029 32.2417 44.476C32.7786 43.4223 32.7786 42.0426 32.7786 39.2837V10.711C32.7786 7.95199 32.7786 6.57247 32.2417 5.51868C31.7695 4.59172 31.0158 3.83809 30.0889 3.3658C29.0351 2.82886 27.6555 2.82886 24.8965 2.82886H11.1028C8.34383 2.82886 6.96432 2.82886 5.91053 3.3658C4.98356 3.83809 4.22993 4.59172 3.75765 5.51868C3.2207 6.57247 3.2207 7.95196 3.2207 10.711V39.2837C3.2207 42.0426 3.2207 43.4223 3.75765 44.476C4.22993 45.4029 4.98356 46.1566 5.91053 46.6288C6.96432 47.1658 8.34381 47.1658 11.1028 47.1658Z" stroke="#0F6E9B" stroke-width="4.6" stroke-linecap="round" stroke-linejoin="round"/>
</svg>
