<svg width="70" height="70" viewBox="0 0 70 70" fill="none" xmlns="http://www.w3.org/2000/svg">
<path d="M69.2171 15.9421C69.4204 11.0585 69.1733 6.0253 68.2479 1.20593C68.12 0.537104 67.2527 -0.0497432 66.5216 0.0033439C60.4534 0.442486 54.3844 0.489795 48.3001 0.491601C47.1643 0.491962 46.222 1.54287 46.5714 2.56778C48.3577 7.81292 47.5007 12.6023 40.4681 11.3712C36.5629 10.6876 30.1122 7.23619 33.9139 3.18893C34.5282 2.53491 33.726 1.393 32.852 1.93001C32.6944 2.02679 32.5819 2.12791 32.4374 2.22578C32.3751 2.04485 32.2878 1.86789 32.1299 1.72597C30.5137 0.272029 27.8406 0.445014 25.7135 0.382176C22.5261 0.288281 19.3315 0.477155 16.1441 0.503518C14.8942 0.513991 14.2444 1.52878 14.428 2.56416C14.942 5.46301 15.4129 8.3958 16.0312 11.2954C15.9913 11.4716 16.0371 11.6543 16.146 11.8035C16.5815 13.7775 17.0757 15.7377 17.7548 17.647C10.5765 15.0826 1.05714 19.2075 0.0599278 26.6025C-0.520794 30.9091 3.20988 34.5739 7.31204 35.9097C9.22475 36.5327 14.3016 37.5092 16.6435 36.1029C15.9289 40.9472 15.0841 45.7677 14.9266 50.6661C14.8966 51.6007 15.7513 52.1912 16.6798 52.2699C19.4132 52.5029 22.1222 52.3024 24.8525 52.1229C26.4549 52.0179 28.3929 52.2631 30.1635 52.2212C29.7699 52.92 29.4892 53.6596 29.4063 54.0825C28.6017 58.1879 29.1943 63.454 32.5748 66.52C36.7279 70.287 43.055 69.9125 47.3368 66.7461C50.5211 64.3915 52.696 58.9965 51.3632 55.0796C57.1633 55.9329 66.3621 57.0517 68.0967 52.1721C69.214 49.0305 68.5985 45.0486 68.4398 41.8168C68.3873 40.7616 68.561 38.1878 67.6305 37.1419C67.7845 36.3568 66.7636 35.4836 65.9499 36.0444C63.5816 37.6775 60.8363 39.9844 57.7511 38.4272C57.4614 38.2809 57.1921 38.1076 56.9355 37.9202C56.9087 37.3496 56.3734 36.8404 55.7824 36.8212C54.5712 35.3911 53.8566 33.5096 53.4792 31.8592C52.9968 29.7527 53.0185 26.9366 54.7911 25.3306C57.3232 23.0374 62.2812 25.7762 64.5571 27.0579C66.2373 28.0044 67.7742 26.0543 66.9219 24.799C66.9768 24.7676 67.0376 24.7491 67.0889 24.7116C69.4907 22.9283 69.1137 18.4188 69.2171 15.9421ZM50.565 3.75844C52.3383 3.75266 54.1109 3.73858 55.8842 3.71402C53.9155 6.14086 51.9044 8.524 49.8528 10.866C50.8318 8.89128 51.0805 6.38824 50.565 3.75844ZM59.3697 3.63132C60.2517 3.60821 61.134 3.59701 62.0159 3.56343C64.7786 3.45834 64.8789 2.1373 65.1896 4.64106C65.246 5.0914 65.282 5.54354 65.3214 5.99568C64.9997 5.87109 64.6345 5.85303 64.2851 6.05202C46.269 16.3029 34.6671 34.2987 18.5467 46.8659C18.6 45.5896 18.6493 44.3119 18.7042 43.0364C18.9352 43.075 19.1866 43.0393 19.4136 42.8713C34.6782 31.6194 48.1619 18.3397 59.3697 3.63132ZM40.8028 15.2364C40.9667 15.1306 41.078 14.9869 41.1597 14.8323C43.7218 15.1729 45.766 14.716 47.3135 13.7294C38.4926 23.5007 28.9539 32.5952 18.7551 41.3398C18.8029 39.7457 18.8246 38.1524 18.7433 36.5569C18.7847 36.5327 18.827 36.5211 18.8677 36.4893C26.9678 30.1557 31.9787 20.9301 40.8028 15.2364ZM27.1482 3.8332C28.2962 3.95165 29.4545 4.0683 30.5531 3.9791C30.265 4.38393 30.0881 4.79418 29.9622 5.20516C29.6878 5.05745 29.3506 5.03976 29.036 5.26077C27.0155 6.67895 25.3689 8.71432 23.5687 10.3763C22.2687 11.5763 21.005 12.8027 19.7788 14.0609C19.5759 12.8356 19.3919 11.6085 19.2056 10.3813C20.3702 9.48101 21.5115 8.55398 22.6418 7.62297C23.4882 6.92597 24.3448 6.24234 25.2319 5.58941C25.9792 5.03939 26.9263 4.74579 27.1482 3.8332ZM31.8488 10.3633C31.7647 10.3947 31.6795 10.4124 31.5981 10.4698C27.9377 13.0566 24.2307 16.1057 20.8668 19.4516C20.8198 19.3913 20.7989 19.3249 20.7377 19.2685C20.4728 18.0118 20.2356 16.7525 20.0149 15.4921C21.579 14.131 23.2031 12.8284 24.8363 11.5362C26.5019 10.2185 28.5583 8.84433 29.8887 7.16685C30.1465 8.28601 30.8603 9.3752 31.8488 10.3633ZM24.1099 3.65841C23.3117 4.26476 22.5904 5.05023 22.0425 5.54029C20.9758 6.49441 19.9411 7.47815 18.9079 8.46297C18.6714 6.88589 18.4366 5.30772 18.1843 3.73027C20.159 3.69994 22.1341 3.66238 24.1099 3.65841ZM3.77797 26.0406C4.40962 23.184 6.81501 21.4487 9.65269 20.7221C8.96577 21.8908 8.359 23.1273 7.66142 24.2183C6.50077 26.0337 5.36183 27.8329 4.40369 29.7332C3.7681 28.6173 3.49175 27.3345 3.77797 26.0406ZM5.15575 30.7863C6.33496 28.7776 7.65155 26.8517 9.02223 24.946C10.0601 23.5036 11.3795 21.9948 12.0845 20.3433C12.7955 20.3028 13.5038 20.3382 14.2041 20.409C13.2827 21.396 12.4908 22.4357 11.9776 22.9944C9.74665 25.4245 7.0124 28.1435 5.42578 31.051C5.33696 30.9618 5.23905 30.8798 5.15575 30.7863ZM17.7627 33.7212C17.5282 33.0723 16.7287 32.7498 15.9948 32.8527C14.8606 33.012 14.0758 33.5396 12.8311 33.5526C11.276 33.5688 9.72968 33.1907 8.26149 32.7599C7.67169 32.5865 7.12413 32.3301 6.62196 32.0159C6.89831 31.6931 7.17703 31.372 7.44469 31.0434C8.80668 29.3706 10.3033 27.7899 11.7735 26.1969C13.4118 24.422 15.4714 22.8301 17.2447 21.1085C17.6715 21.2728 18.0884 21.4512 18.4681 21.6665C18.538 21.7058 18.6095 21.7098 18.6801 21.7387C15.683 25.0146 13.0628 28.5248 11.2223 32.1878C10.8331 32.9625 11.9981 33.6244 12.4916 32.8664C17.7413 24.8048 25.1253 18.079 33.0963 12.2462C33.3032 12.0946 33.394 11.9053 33.4362 11.7089C33.514 11.7656 33.6001 11.814 33.6794 11.8696C26.1841 17.3686 20.2367 24.7596 14.4378 31.6978C13.9246 32.3117 15.0284 33.0575 15.5922 32.5125C22.3295 25.9994 28.1967 18.9948 35.7911 13.2408C35.8195 13.2195 35.8266 13.1946 35.8515 13.1722C36.5349 13.5185 37.2257 13.7998 37.9095 14.0443C34.842 15.5391 32.1627 19.2953 30.3297 21.3061C26.378 25.6415 22.4937 30.0412 18.6016 34.4233C18.5171 33.9552 18.1456 33.7187 17.7627 33.7212ZM30.9112 48.7514C29.6677 48.5509 28.2899 48.6661 27.0779 48.7145C35.2554 42.8215 42.7365 35.9556 49.7414 28.8806C49.6814 30.1023 49.7892 31.3341 50.0059 32.4684C50.1571 33.2615 50.3928 34.069 50.6968 34.8635C50.484 34.7967 50.2527 34.7739 50.0581 34.866C47.2231 36.2062 44.7976 39.1469 42.3362 41.0451C38.7046 43.8453 34.8018 46.2772 30.9112 48.7514ZM33.4493 51.1475C33.6707 50.7055 33.6502 50.1807 33.2065 49.7658C33.0217 49.5932 32.8208 49.4484 32.6092 49.322C36.4085 47.2675 40.0267 44.8998 43.53 42.4596C46.0668 40.6926 49.7667 38.5449 51.1011 35.7913C51.6226 36.905 52.3012 37.9649 53.1314 38.8898C47.0593 44.4289 39.7413 48.3617 32.9191 53.0547C32.9692 52.834 33.0245 52.6137 33.0486 52.3887C33.6139 52.2042 33.7619 51.5567 33.4493 51.1475ZM48.0601 58.2377C46.7905 59.2294 45.6531 60.6252 44.5457 61.5663C43.3614 62.5721 40.9797 65.0365 39.189 64.9151C38.6232 64.8772 38.5056 65.7085 39.0555 65.8165C41.0057 66.1997 42.9208 64.8068 44.3669 63.7927C45.3065 63.1333 46.2026 62.4258 47.0889 61.7068C46.7443 62.3417 46.3487 62.952 45.8746 63.4908C43.1356 66.6056 38.9395 66.5659 35.508 64.5204C35.221 64.3492 34.9905 64.1293 34.7583 63.9112C37.2119 62.4417 39.6651 60.9762 42.1494 59.545C43.8825 58.5465 46.2915 57.4342 47.7494 55.9084C47.9057 56.6382 48.0585 57.3724 48.0699 58.1431C48.0699 58.1756 48.0601 58.2059 48.0601 58.2377ZM59.4416 52.791C60.5612 51.4458 61.8636 50.2555 63.2184 49.0879C63.8248 48.5661 64.5133 48.0399 65.188 47.4953C65.1963 48.7835 65.1055 50.067 64.7838 51.3389C64.5295 52.3411 62.2457 52.7022 59.4416 52.791ZM61.6097 41.616C62.7392 41.3073 63.8189 40.7894 64.7841 40.1188C64.7794 41.6684 64.9377 43.2296 65.0597 44.7904C63.7893 45.9114 62.6464 47.2667 61.4798 48.3834C60.0488 49.7546 58.7286 51.1984 57.6544 52.8156C55.6797 52.8098 53.6103 52.717 51.8886 52.6423C51.9258 52.6206 51.9641 52.6098 52.0004 52.5801C55.9198 49.3848 60.6315 47.106 64.5066 43.9204C65.3084 43.261 64.2717 42.0667 63.3673 42.5702C59.0207 44.989 54.5037 48.2916 51.0308 51.6936C50.6996 52.0179 50.8283 52.4057 51.1161 52.609C50.6001 52.5877 50.1153 52.5689 49.7012 52.5588C49.1181 52.1374 48.3206 52.2562 47.8275 52.6917C47.2717 52.9362 47.1244 53.4808 47.3147 53.9377C44.8529 55.05 42.684 57.1456 40.4073 58.5909C38.2233 59.978 35.9664 61.3121 33.865 62.8137C33.3952 62.0239 33.0892 61.1203 32.9068 60.186C42.5146 54.747 53.1804 48.6824 61.6097 41.616ZM54.8077 40.373C55.2577 40.6937 55.7235 40.9963 56.2364 41.2354C56.5964 41.4033 56.9604 41.5373 57.326 41.6424C53.9257 43.9594 50.6763 46.5495 47.381 48.877C42.5343 52.301 37.6012 55.6173 32.7268 59.0066C32.64 58.1976 32.6092 57.4056 32.6028 56.7014C32.5977 56.1081 32.623 55.5115 32.67 54.9163C40.2343 50.3519 48.3372 46.2151 54.8077 40.373ZM55.7567 21.4404C54.6505 21.6325 53.5846 22.0327 52.6139 22.764C52.1729 23.0962 51.8065 23.4743 51.4793 23.8738C51.1567 23.8665 50.8243 23.9799 50.5357 24.2775C42.438 32.6465 34.2301 40.6265 25.211 48.175C24.9658 48.3801 24.9181 48.6102 24.9733 48.8182C22.7993 48.9449 20.6319 49.1179 18.4547 49.1031C18.4579 48.9565 18.4689 48.8102 18.4729 48.6633C36.3552 37.6331 48.777 20.5011 65.4821 8.07728C65.4936 8.25965 65.507 8.44238 65.5192 8.62476C65.597 9.81579 65.6771 11.0422 65.7265 12.2831C63.8485 13.6493 62.3069 15.4427 60.6705 17.0396C59.1044 18.569 57.459 20.0349 55.7567 21.4404ZM64.4885 23.293C63.9752 23.0421 63.4411 22.8055 62.8967 22.5823C63.6164 22.1999 64.2962 21.7618 64.9077 21.2064C64.9871 21.1342 65.0696 21.0417 65.1497 20.9637C64.9736 21.755 64.7664 22.5361 64.4885 23.293ZM65.6874 17.0555C65.0569 17.9349 64.7036 18.9767 64.0341 19.8561C63.331 20.7792 62.3539 21.4736 61.2789 21.998C60.3764 21.7116 59.4582 21.4837 58.5411 21.3743C59.5683 20.5831 60.5675 19.7615 61.5505 18.9107C62.9389 17.7084 64.4249 16.4979 65.7628 15.1978C65.7533 15.8179 65.7265 16.4376 65.6874 17.0555Z" fill="#0F6E9B"/>
</svg>
