<svg width="44" height="44" viewBox="0 0 44 44" fill="none" xmlns="http://www.w3.org/2000/svg">
<g clip-path="url(#clip0_196_41)">
<path d="M22 0C9.84973 0 0 9.84973 0 22C0 34.1503 9.84973 44 22 44C34.1503 44 44 34.1503 44 22C44 9.84973 34.1503 0 22 0ZM35.9455 12.5469H31.9351C31.474 10.6122 30.876 8.83326 30.1659 7.26052C31.5225 8.0147 32.7826 8.96182 33.9103 10.0897C34.6726 10.8519 35.3519 11.675 35.9455 12.5469ZM38.8438 22C38.8438 23.4702 38.6555 24.9113 38.2925 26.2969H32.7896C32.9272 24.9071 33 23.4706 33 22C33 20.5294 32.9272 19.0929 32.7896 17.7031H38.2925C38.6555 19.0887 38.8438 20.5298 38.8438 22ZM22 38.8438C21.5531 38.8438 20.1912 37.9654 18.8337 35.2504C18.2714 34.1258 17.7889 32.8447 17.3941 31.4531H26.6058C26.211 32.8446 25.7286 34.1258 25.1662 35.2504C23.8088 37.9654 22.4469 38.8438 22 38.8438ZM16.398 26.2969C16.2393 24.9006 16.1562 23.4584 16.1562 22C16.1562 20.5416 16.2393 19.0994 16.398 17.7031H27.602C27.7607 19.0994 27.8438 20.5416 27.8438 22C27.8438 23.4584 27.7607 24.9006 27.602 26.2969H16.398ZM5.15625 22C5.15625 20.5298 5.34454 19.0887 5.70745 17.7031H11.2104C11.0728 19.0929 11 20.5294 11 22C11 23.4706 11.0728 24.9071 11.2104 26.2969H5.70745C5.34454 24.9113 5.15625 23.4702 5.15625 22ZM22 5.15625C22.4469 5.15625 23.8088 6.03462 25.1663 8.74955C25.7286 9.87422 26.2111 11.1553 26.6059 12.5469H17.3941C17.7889 11.1554 18.2713 9.87422 18.8337 8.74955C20.1912 6.03462 21.5531 5.15625 22 5.15625ZM13.8341 7.26052C13.1239 8.83326 12.526 10.6121 12.0649 12.5469H8.05449C8.64823 11.675 9.3274 10.8519 10.0897 10.0897C11.2175 8.96182 12.4775 8.0147 13.8341 7.26052ZM8.05449 31.4531H12.0649C12.526 33.3878 13.124 35.1667 13.8341 36.7395C12.4775 35.9853 11.2174 35.0382 10.0897 33.9103C9.3274 33.1481 8.64815 32.325 8.05449 31.4531ZM30.1659 36.7395C30.8761 35.1667 31.474 33.3879 31.9351 31.4531H35.9455C35.3518 32.325 34.6726 33.1481 33.9103 33.9103C32.7825 35.0382 31.5225 35.9853 30.1659 36.7395Z" fill="#0F6E9B"/>
</g>
<defs>
<clipPath id="clip0_196_41">
<rect width="44" height="44" fill="white"/>
</clipPath>
</defs>
</svg>
