<svg width="138" height="132" viewBox="0 0 138 132" fill="none" xmlns="http://www.w3.org/2000/svg">
<path d="M58.7441 17.4527V14.6108C58.7441 14.8666 58.7558 15.1246 58.7787 15.3837C58.8733 16.4325 59.1839 17.4659 59.3995 18.5249V21.3667C59.1839 20.3078 58.8733 19.2744 58.7787 18.2258C58.7556 17.9688 58.7441 17.7108 58.7441 17.4527Z" fill="#233A45"/>
<path d="M137.434 63.4593L136.916 64.2536C136.818 64.4157 126.589 79.8485 113.41 98.2155C103.229 112.4 91.3791 114.281 85.7701 114.281C83.8896 114.281 82.7062 114.07 82.5117 114.037H48.874L46.5234 111.719H82.7387C83.6141 111.865 98.8037 114.524 111.513 96.8538C122.942 80.9509 132.101 67.2688 134.403 63.8159C132.749 62.4704 127.432 58.1097 122.31 58.9364C120.656 59.212 118.16 61.0763 115.42 63.7835L115.047 63.4106V60.671C117.673 58.4339 120.121 56.9263 121.953 56.6345C129.621 55.3862 136.478 62.5352 136.737 62.7946L137.434 63.4593Z" fill="#0F6E9B"/>
<path d="M134.403 63.8162C132.101 67.2854 122.942 80.9674 111.513 96.8541C98.8039 114.524 83.6143 111.865 82.7389 111.72H46.5236L21.4453 86.8844C23.6824 83.0748 35.5812 65.6157 62.4914 73.9319C63.7072 74.9532 69.7053 78.9897 83.6953 75.7637C85.5758 75.326 87.2131 75.1477 88.6559 75.1477C92.9842 75.1477 95.3996 76.8498 96.6965 78.5196C98.9174 81.3403 98.9174 85.2147 97.7988 87.4518C95.5131 92.0071 91.7197 94.0334 85.5109 94.0334H64.842V96.3516H85.5109C92.6438 96.3516 97.199 93.8389 99.89 88.4731C100.409 87.4194 100.733 86.0739 100.798 84.6311L100.814 84.6797C102.986 78.7465 109.73 69.4415 115.436 63.7838C118.176 61.0604 120.656 59.1961 122.326 58.9368C127.432 58.11 132.75 62.4545 134.403 63.8162Z" fill="#FFE8C4"/>
<path d="M120.283 22.5753V34.8308C120.283 37.4894 118.127 39.6455 115.468 39.6455H115.047V60.6873C114.317 61.3357 113.571 62.0165 112.81 62.746V39.6455H89.2551V72.8617C88.4445 72.813 87.5691 72.8455 86.6451 72.9427V20.5166C86.4182 20.5166 86.2236 20.5328 85.9967 20.5328C84.2135 20.5328 82.333 20.4679 80.3391 20.3707H79.7717C78.9773 20.4193 78.2316 20.4355 77.4859 20.4679V74.4341C76.5457 74.5314 75.6865 74.5962 74.876 74.6287V39.6455H50.6568V69.4574C49.8949 69.3925 49.1492 69.3925 48.4197 69.3925V39.6455H47.366C44.7074 39.6455 42.5352 37.4894 42.5352 34.8308V22.5753C42.5352 19.9167 44.7074 17.7607 47.366 17.7607H58.1463C56.282 16.7718 54.8879 15.556 54.0449 14.0646C51.4674 9.50932 54.8068 4.53257 54.9527 4.32183C57.352 1.40386 60.0592 0.139401 63.0582 0.479831C70.6936 1.3228 77.7291 12.7677 80.0635 16.9339C82.4141 12.7677 89.4496 1.3228 97.085 0.479831C100.068 0.12319 102.791 1.38764 105.126 4.20835C105.336 4.51635 108.676 9.49311 106.098 14.0484C105.255 15.5398 103.861 16.7394 101.997 17.7445H115.484C118.127 17.7607 120.283 19.9167 120.283 22.5753ZM117.673 34.8308V22.5753C117.673 21.3595 116.684 20.3707 115.468 20.3707H90.7465C90.2439 20.3869 89.7738 20.4355 89.2551 20.4517V37.0193H115.484C116.684 37.0193 117.673 36.0466 117.673 34.8308ZM103.813 12.8164C105.596 9.67143 103.051 5.84565 103.018 5.81323C101.316 3.78686 99.4355 2.84663 97.3605 3.08979C91.7191 3.70581 85.5266 12.6218 82.6086 17.7607H91.0221C99.3221 17.1285 102.629 14.8914 103.813 12.8164ZM69.04 17.7607H77.5021C74.5842 12.6218 68.4078 3.70581 62.7664 3.08979C60.6752 2.86284 58.7785 3.77065 57.0277 5.91049C57.0439 5.91049 54.5637 9.68764 56.3307 12.8164C57.4979 14.8589 60.7563 17.1285 69.04 17.7607ZM74.8922 37.0193V20.549H74.1303C72.4281 20.549 70.8719 20.4841 69.3805 20.3869H47.366C46.1502 20.3869 45.1613 21.3595 45.1613 22.5915V34.847C45.1613 36.0628 46.134 37.0517 47.366 37.0517H74.8922V37.0193Z" fill="#FB5D00"/>
<path d="M117.674 22.5757V34.8312C117.674 36.047 116.685 37.0358 115.469 37.0358H89.2559V20.4683C89.7746 20.4521 90.2447 20.4034 90.7473 20.3872H115.485C116.685 20.3872 117.674 21.3599 117.674 22.5757Z" fill="#FFDD9D"/>
<path d="M115.063 63.4109L115.436 63.7838C109.73 69.4414 103.003 78.7465 100.814 84.6797L100.798 84.6311C100.895 83.2369 100.733 81.7293 100.23 80.2703C102.678 74.402 107.817 67.5447 112.81 62.7139V64.4809L114.172 63.4109H115.063Z" fill="#0F6E9B"/>
<path d="M115.063 60.6714V63.411H114.188L112.826 64.481V62.714C113.588 62.0007 114.334 61.3198 115.063 60.6714Z" fill="#0F6E9B"/>
<path d="M112.827 39.6455V62.7461C107.834 67.577 102.695 74.4342 100.247 80.3025C99.874 79.184 99.3066 78.0816 98.5285 77.0928C97.1992 75.4068 94.4434 73.0563 89.2559 72.8617V39.6455H112.827Z" fill="#FEB55D"/>
<path d="M103.019 5.81343C103.035 5.86206 105.596 9.67163 103.813 12.8166C102.629 14.8916 99.3387 17.1287 91.0225 17.7771H82.5928C85.5107 12.6382 91.7195 3.72221 97.3447 3.1062C99.4359 2.84682 101.316 3.77085 103.019 5.81343Z" fill="#FFE8C4"/>
<path d="M100.247 80.2866C100.749 81.7456 100.911 83.2532 100.814 84.6474L99.8252 81.389C99.9387 81.0323 100.068 80.6595 100.247 80.2866Z" fill="#0F6E9B"/>
<path d="M99.8088 81.3889L100.798 84.6473C100.733 86.0738 100.409 87.4193 99.8898 88.4893C97.1988 93.8551 92.6273 96.3678 85.5107 96.3678H64.8418V94.0334H85.5107C91.7357 94.0334 95.5291 92.007 97.7986 87.4355C98.9172 85.1984 98.9172 81.324 96.6963 78.5033C95.3832 76.8174 92.984 75.1315 88.6557 75.1315V74.483H89.2555V72.8457C94.443 73.0402 97.1988 75.3908 98.5281 77.0768C99.3225 78.0656 99.8736 79.168 100.246 80.2865C100.068 80.6594 99.9385 81.0322 99.8088 81.3889Z" fill="#0F6E9B"/>
<path d="M89.2555 72.8458V74.4831H88.6557L86.6455 74.5317V72.9431C87.5695 72.8296 88.4449 72.8134 89.2555 72.8458Z" fill="#0F6E9B"/>
<path d="M88.6553 74.483V75.1315C87.2287 75.1315 85.5914 75.326 83.6947 75.7475C69.7047 78.9734 63.7066 74.9369 62.4908 73.9156C35.5807 65.5994 23.6818 83.0586 21.4447 86.8682L19.7588 85.1822C22.2715 81.1457 31.0092 69.5387 48.4035 69.3604V70.3492H50.6568V69.409C54.4988 69.5549 58.7461 70.3006 63.3986 71.7596L63.6742 71.8406L63.885 72.0352C63.9336 72.0838 66.9813 74.8559 74.8922 74.6127V75.4232H75.7027L77.5021 75.407V74.4344C79.2043 74.2723 81.0848 73.9643 83.176 73.4779C84.4242 73.2023 85.5752 73.024 86.6451 72.9106V74.4992L88.6553 74.483Z" fill="#0F6E9B"/>
<path d="M86.6459 20.5169V72.9269C85.5922 73.0241 84.425 73.2186 83.1768 73.4942C81.0855 73.9644 79.1889 74.2886 77.5029 74.4507V20.4845C78.2486 20.4358 78.9943 20.4196 79.7887 20.3872H80.3561C82.35 20.4845 84.2305 20.5493 86.0137 20.5493C86.2244 20.5493 86.4189 20.5169 86.6459 20.5169Z" fill="#FFE8C4"/>
<path d="M77.5025 74.4507V75.4233L75.7031 75.4395H74.8926V74.629C75.7031 74.6128 76.5623 74.5479 77.5025 74.4507Z" fill="#0F6E9B"/>
<path d="M77.5024 17.7611H69.0403C60.7403 17.1127 57.4981 14.8593 56.3147 12.8005C54.5477 9.67184 57.0442 5.89469 57.0117 5.89469C58.7787 3.75485 60.6592 2.84703 62.7504 3.07399C68.408 3.70621 74.5844 12.6222 77.5024 17.7611Z" fill="#FFE8C4"/>
<path d="M74.8926 39.6455V74.6449C66.9816 74.8881 63.934 72.116 63.8854 72.0674L63.6746 71.8729L63.399 71.7918C58.7303 70.3328 54.483 69.5871 50.6572 69.4412V39.6455H74.8926Z" fill="#FEB55D"/>
<path d="M74.893 20.5489V37.0354H47.3668C46.151 37.0354 45.1621 36.0628 45.1621 34.8308V22.5753C45.1621 21.3595 46.1348 20.3706 47.3668 20.3706H69.3813C70.8727 20.4679 72.4289 20.5327 74.1311 20.5327C74.3742 20.5489 74.6336 20.5489 74.893 20.5489Z" fill="#FFDD9D"/>
<path d="M50.6572 69.4412V70.3814H48.4201V69.3926C49.1496 69.3926 49.8953 69.3926 50.6572 69.4412ZM49.6197 114.783C52.7322 117.879 52.7646 122.937 49.6684 126.034L46.1668 129.584C44.6754 131.091 42.6814 131.934 40.5416 131.934H40.493C38.3855 131.934 36.3916 131.124 34.9002 129.649L2.91602 97.9725C1.42461 96.4648 0.56543 94.4709 0.56543 92.3311C0.56543 90.1912 1.37598 88.2135 2.86738 86.6896L6.36895 83.1395C7.86035 81.648 9.8543 80.7889 11.9941 80.7889H12.0428C14.1502 80.7889 16.1441 81.5994 17.668 83.0908L19.7754 85.182C19.2566 86.0088 19.0135 86.5275 18.9811 86.5762L21.0561 87.565C21.0723 87.5488 21.202 87.2895 21.4451 86.868L46.5234 111.703H45.3076V113.762L16.0145 84.7443C14.9607 83.7068 13.5504 83.1232 12.0266 83.1232H12.0104C10.5027 83.1232 9.05996 83.7231 8.00625 84.7768L4.50469 88.327C3.45098 89.3807 2.88359 90.8072 2.88359 92.3311C2.88359 93.8387 3.4834 95.249 4.53711 96.3189L36.5213 127.995C37.575 129.049 38.9854 129.632 40.4768 129.632H40.5254C42.033 129.616 43.4434 129.033 44.5133 127.946L48.0148 124.429C50.2195 122.208 50.1871 118.625 47.9662 116.421L45.567 114.038H48.874L49.6197 114.783Z" fill="#0F6E9B"/>
<path d="M48.874 114.037H45.5832L45.3076 113.762V111.719H46.5234L48.874 114.037Z" fill="#0F6E9B"/>
<path d="M47.982 116.421C50.2029 118.625 50.2191 122.208 48.0307 124.429L44.5291 127.947C43.4754 129.017 42.065 129.6 40.5412 129.633H40.4926C39.0012 129.633 37.5908 129.049 36.5371 127.995L4.55293 96.3192C3.49922 95.2655 2.89941 93.8552 2.89941 92.3313C2.89941 90.8237 3.4668 89.381 4.52051 88.3272L8.02207 84.7771C9.07578 83.7233 10.5023 83.1235 12.0262 83.1235H12.0424C13.55 83.1235 14.9603 83.7071 16.0303 84.7446L45.3234 113.762V114.038H45.599L47.982 116.421Z" fill="#0F6E9B"/>
<path d="M45.5836 114.038H45.308V113.762L45.5836 114.038ZM19.7596 85.1982L21.4455 86.8842C21.2023 87.3219 21.0727 87.565 21.0564 87.5813L18.9814 86.5924C18.9977 86.5437 19.257 86.025 19.7596 85.1982Z" fill="#0F6E9B"/>
</svg>
