<svg width="23" height="20" viewBox="0 0 23 20" fill="none" xmlns="http://www.w3.org/2000/svg">
<g clip-path="url(#clip0_92_287)">
<path d="M0 9.61138C0.0333673 9.53064 0.0638076 9.44874 0.101273 9.37032C0.304989 8.93874 0.645686 8.69246 1.12336 8.63844C1.23533 8.62962 1.3477 8.6269 1.45996 8.6303L16.6251 8.6303C16.542 8.54317 16.491 8.48683 16.4366 8.43281C14.9146 6.91831 13.3926 5.404 11.8706 3.88989C11.3905 3.41184 11.2465 2.78218 11.6124 2.29832C11.957 1.85092 12.3597 1.45072 12.8101 1.10814C13.2345 0.781693 13.8304 0.875793 14.2455 1.22024C14.304 1.26787 14.3573 1.31899 14.4106 1.37127C17.1209 4.06066 19.8311 6.75005 22.5411 9.43944C23.0345 9.92911 23.137 10.5239 22.8138 11.0554C22.7377 11.1742 22.6472 11.2835 22.5446 11.3807C19.8362 14.072 17.1262 16.7618 14.4147 19.45C13.8012 20.0576 13.0718 20.0582 12.4577 19.4553C12.2626 19.2616 12.0665 19.068 11.8694 18.8744C11.2746 18.2796 11.2711 17.5616 11.8694 16.9697C13.4054 15.4475 14.9429 13.9266 16.4817 12.4071C16.5402 12.349 16.5911 12.2909 16.6807 12.198L1.62036 12.198C0.625197 12.198 0.368211 12.0283 0 11.1274L0 9.61138Z" fill="black"/>
</g>
<defs>
<clipPath id="clip0_92_287">
<rect width="23" height="19" fill="white" transform="translate(0 0.906738)"/>
</clipPath>
</defs>
</svg>
