<svg width="23" height="20" viewBox="0 0 23 20" fill="none" xmlns="http://www.w3.org/2000/svg">
<g clip-path="url(#clip0_92_279)">
<path d="M23 11.1215C22.9666 11.2023 22.9362 11.2842 22.8987 11.3626C22.695 11.7942 22.3543 12.0405 21.8766 12.0945C21.7647 12.1033 21.6523 12.106 21.54 12.1026L6.3749 12.1026C6.45803 12.1897 6.50896 12.2461 6.5634 12.3001C8.08542 13.8146 9.60743 15.3289 11.1294 16.843C11.6095 17.3211 11.7535 17.9507 11.3876 18.4346C11.043 18.882 10.6403 19.2822 10.1899 19.6248C9.76549 19.9512 9.16956 19.8571 8.75452 19.5127C8.69598 19.465 8.64271 19.4139 8.58944 19.3616C5.87908 16.6723 3.16892 13.9829 0.458947 11.2935C-0.0345372 10.8038 -0.136981 10.209 0.186154 9.67751C0.262338 9.55868 0.352758 9.44946 0.455434 9.35223C3.16384 6.6609 5.87381 3.97112 8.58534 1.28289C9.19883 0.675306 9.92822 0.674726 10.5423 1.27766C10.7374 1.47128 10.9335 1.6649 11.1306 1.85852C11.7254 2.45333 11.7289 3.17127 11.1306 3.76317C9.59455 5.28541 8.05712 6.80631 6.51832 8.32584C6.45979 8.38393 6.40886 8.44201 6.31929 8.53495L21.3796 8.53495C22.3748 8.53495 22.6318 8.70456 23 9.60548L23 11.1215Z" fill="black"/>
</g>
<defs>
<clipPath id="clip0_92_279">
<rect width="23" height="19" fill="white" transform="translate(23 19.8267) rotate(180)"/>
</clipPath>
</defs>
</svg>
