<svg width="209" height="119" viewBox="0 0 209 119" fill="none" xmlns="http://www.w3.org/2000/svg">
<path d="M2.00977 20.6708C2.00977 11.6975 7.8103 4.85541 14.6531 4.85541C14.6531 4.85541 157.956 4.85541 159.995 4.85541C174.189 4.85541 201.845 53.4059 204.775 58.6213C204.944 58.9207 204.944 59.2265 204.777 59.5265C201.858 64.767 174.192 113.741 159.995 113.741H14.6531C7.8103 113.741 2.00977 106.899 2.00977 97.9253V20.6708Z" fill="#FB5D00"/>
<path d="M159.938 116.842C151.504 116.386 144.301 117.626 135.771 118.315C131.869 118.631 127.688 118.831 122.985 118.7C118.159 118.567 114.655 118.314 111.548 118.045C105.009 117.479 100.231 116.839 88.599 117.077C88.174 117.085 87.7489 117.093 87.324 117.1C78.804 117.241 70.3398 117.05 63.1004 116.912C56.126 116.78 50.2883 116.695 46.6323 117.002C43.1657 117.292 41.1061 117.052 38.8767 116.744C36.193 116.372 33.2633 115.901 27.337 116.136C22.4639 116.329 18.4529 116.384 14.6533 116.33C13.2002 116.327 11.4713 115.978 10.115 115.408C8.70367 114.833 7.42107 114.015 6.29993 113.029C5.21808 112.077 4.27878 110.967 3.48787 109.733C2.88713 108.795 2.37079 107.783 1.94674 106.708C1.8517 106.467 1.75679 106.214 1.66331 105.949C1.2694 104.832 0.901395 103.488 0.67368 101.963C0.488965 100.747 0.391117 99.303 0.439651 97.9253C0.567102 94.1188 0.675009 89.6571 0.747119 85.0496C0.814467 80.7464 0.85059 76.3161 0.842249 72.1738C0.832312 67.2393 0.759275 62.7135 0.600755 59.2981C0.559914 58.4181 0.513398 57.6119 0.460826 56.8914C0.212337 53.4857 0.182209 49.9263 0.266336 46.4223C0.375244 41.8862 0.675632 37.4429 0.941632 33.5466C1.10969 31.0848 1.26403 28.8414 1.34767 26.9307C1.44681 24.6659 1.58248 22.8837 1.72364 21.5173C1.85806 20.2174 2.32212 20.4878 2.35719 21.8296C2.43288 24.7255 2.60802 28.7699 2.96224 33.5466C3.04973 34.7263 3.14814 35.9508 3.25868 37.2136C3.60154 41.1306 3.70661 43.898 3.71247 46.4223C3.72133 50.2302 3.50447 53.485 3.53766 59.2981C3.54925 61.3275 3.59131 63.6687 3.68409 66.4541C3.75056 68.4497 3.82529 70.3462 3.90387 72.1738C4.10019 76.7399 4.32054 80.8755 4.49616 85.0496C4.66892 89.1555 4.79841 93.2987 4.81919 97.9252C4.81919 97.9252 4.81919 97.9254 4.81919 97.9253C4.83084 99.082 4.911 99.9953 5.1075 101.122C5.28944 102.135 5.56456 103.159 5.95505 104.171C6.32008 105.116 6.78742 106.053 7.37489 106.94C7.65885 107.369 7.97043 107.785 8.31194 108.183C8.6456 108.573 8.99772 108.925 9.36108 109.238C10.1584 109.926 11.0142 110.427 11.8679 110.75C12.8696 111.113 13.6239 111.234 14.6533 111.219C22.9566 111.012 28.831 110.15 38.8767 110.085C43.3196 110.056 48.5784 110.183 55.2241 110.592C58.1086 110.769 60.714 110.892 63.1004 110.969C73.7478 111.315 80.0369 110.757 87.324 110.115C93.4998 109.572 100.392 108.968 111.262 108.803C111.357 108.802 111.452 108.801 111.548 108.799C119.244 108.687 127.516 108.747 135.771 108.885C144.063 109.024 152.337 109.242 159.995 109.444C161.749 109.584 165.135 107.408 167.626 105.212C170.729 102.527 173.37 99.5826 175.515 97.0098C176.278 96.0902 176.985 95.2007 177.624 94.3689C179.219 92.2896 180.856 90.0392 182.527 87.6402C184.654 84.5855 186.834 81.2943 189.055 77.8109C191.092 74.6143 193.183 71.225 195.272 67.7428C197.242 64.4564 199.287 60.9699 201.222 57.5455C201.206 57.5655 201.075 57.8311 201.037 57.9464C200.978 58.1015 200.926 58.2786 200.89 58.4722C200.853 58.6651 200.833 58.8741 200.834 59.0832C200.835 59.2922 200.856 59.5007 200.894 59.6929C200.932 59.8856 200.985 60.0616 201.044 60.2155C201.083 60.3298 201.214 60.5932 201.231 60.6126C199.398 57.319 197.384 53.8314 195.379 50.424C194.874 49.5671 194.378 48.7278 193.859 47.8563C192.395 45.3994 190.852 42.9155 189.212 40.3886C187.128 37.1801 184.91 33.9329 182.563 30.707C180.303 27.6026 177.918 24.5059 175.405 21.5287C172.952 18.6307 170.343 15.7846 167.595 13.3495C164.936 10.9636 161.785 8.90781 159.995 8.91265C153.636 8.9011 146.971 8.83066 140.725 8.65193C139.193 8.60637 137.462 8.56004 135.792 8.51308C128.26 8.30058 119.819 8.07499 111.564 7.84804C103.254 7.62093 94.9185 7.39247 87.3247 7.17439C77.9596 6.90542 69.6561 6.65226 63.8098 6.43696C63.5623 6.42787 63.318 6.41888 63.0769 6.41C51.9312 5.99783 46.5112 5.81474 38.8317 5.87357C35.7067 5.89752 32.1533 5.96153 27.7051 6.06648C23.9266 6.15695 19.1846 6.17233 14.6531 6.09953C13.5046 6.08652 12.4932 6.25159 11.4066 6.62053C10.3586 6.9808 9.35212 7.52667 8.43532 8.21162C7.51587 8.89752 6.68295 9.72302 5.95646 10.637C5.21927 11.5638 4.59001 12.5828 4.07254 13.6455C3.53926 14.7405 3.1228 15.8846 2.81364 17.0389C2.7871 17.138 2.76129 17.2374 2.73621 17.3372C1.94263 22.1272 1.37823 21.561 1.66278 16.8207C1.70117 16.5227 1.75189 16.2025 1.81473 15.8741C2.00251 14.8926 2.27275 13.9413 2.6127 13.0408C3.09184 11.7703 3.71305 10.5932 4.43627 9.54478C5.22724 8.39689 6.14089 7.40205 7.11803 6.58054C8.22337 5.64931 9.41243 4.94111 10.5861 4.44016C11.9766 3.83378 13.4763 3.51627 14.6531 3.36566C14.6278 3.34253 14.9099 3.31814 15.1017 3.29243C23.0991 1.92946 26.4943 1.4066 36.7036 2.1999C37.4757 2.25834 38.1379 2.3027 38.8317 2.3348C47.52 2.73837 52.0805 1.2057 57.5319 1.3979C59.6257 1.47041 60.9456 1.64732 63.0769 1.81193C66.6598 2.08414 72.3601 2.32274 87.3247 2.00018C89.2177 1.95933 91.2572 1.90948 93.454 1.84956C100.136 1.6679 106.107 1.51625 111.564 1.38808C121.283 1.15758 129.268 1.00303 135.792 0.88653C141.988 0.775648 147.184 0.699225 151.479 0.624584C153.748 0.583539 156.902 0.591251 159.995 0.62613C165.718 0.89335 169.653 4.41375 172.979 7.33636C176.017 10.1564 178.775 13.3207 181.398 16.5621C183.964 19.7423 186.408 23.0371 188.732 26.2755C190.65 28.9496 192.485 31.5869 194.234 34.1147C194.681 34.761 195.161 35.4643 195.643 36.1782C197.626 39.1168 199.853 42.5693 202.15 46.2996C204.148 49.5449 206.254 53.0759 208.281 56.6521C208.348 56.763 208.523 57.1184 208.599 57.3296C208.695 57.5798 208.777 57.8548 208.834 58.1485C208.891 58.4414 208.923 58.7525 208.924 59.0642C208.925 59.3757 208.895 59.6873 208.839 59.9811C208.783 60.2755 208.702 60.5517 208.608 60.8032C208.533 61.0152 208.358 61.3727 208.291 61.4844C206.367 64.9474 204.283 68.5203 202.228 71.9446C200.104 75.4838 197.939 78.9708 195.853 82.2244C193.492 85.9095 191.209 89.3319 189.13 92.343C187.261 95.0527 185.562 97.4238 184.154 99.3614C183.379 100.429 182.638 101.407 181.943 102.289C178.238 106.957 175.736 109.226 173.087 111.253C170.04 113.053 168.133 115.932 159.995 116.845C159.976 116.844 159.957 116.843 159.938 116.842Z" fill="white"/>
</svg>
