<svg width="55" height="56" viewBox="0 0 55 56" fill="none" xmlns="http://www.w3.org/2000/svg">
<path fill-rule="evenodd" clip-rule="evenodd" d="M29.6237 16.7849L27.4916 9.87878L25.405 16.7373H18.4648L24.0896 21.0239L21.9123 27.9777L27.5369 23.6911L33.1617 27.9777L30.9389 21.0715L36.5637 16.7849H29.6237Z" fill="#FB5D00"/>
<path fill-rule="evenodd" clip-rule="evenodd" d="M10.4764 0.829346H44.5509V4.19973H54.6619V16.1814C54.6619 19.3591 53.3995 22.4067 51.1527 24.6537C49.3205 26.4857 46.9563 27.6632 44.4233 28.0356C44.0509 30.5687 42.8736 32.9328 41.0414 34.7648C38.8381 36.968 35.8651 38.2248 32.7546 38.2729V43.1443C32.7546 43.5422 32.9124 43.9237 33.1938 44.2048C33.4752 44.4862 33.8567 44.6442 34.2543 44.6442C36.0913 44.6442 37.8529 45.3738 39.1517 46.6727C40.4506 47.9716 41.1805 49.7334 41.1805 51.5702V55.126H13.8467V51.5702C13.8467 49.7334 14.5765 47.9716 15.8754 46.6727C17.1742 45.3738 18.9359 44.6442 20.7728 44.6442C21.1706 44.6442 21.5521 44.4862 21.8334 44.2048C22.1146 43.9237 22.2727 43.5422 22.2727 43.1443V38.2729C19.162 38.2248 16.189 36.968 13.9857 34.7648C12.1537 32.9328 10.9762 30.5687 10.6038 28.0356C8.07076 27.6632 5.70659 26.4857 3.87458 24.6537C1.62757 22.4067 0.365234 19.3591 0.365234 16.1814V4.19973H10.4764V0.829346ZM14.2175 4.57044V26.2925C14.2175 28.478 15.0857 30.574 16.6311 32.1195C18.1765 33.665 20.2725 34.5332 22.458 34.5332H26.0138V43.1443C26.0138 44.5342 25.4616 45.8673 24.4787 46.8503C23.4959 47.833 22.1628 48.3853 20.7728 48.3853C19.9282 48.3853 19.118 48.7207 18.5207 49.3183C17.9672 49.8717 17.6385 50.6078 17.5932 51.3849H37.434C37.3888 50.6078 37.0599 49.8717 36.5065 49.3183C35.9092 48.7207 35.099 48.3853 34.2543 48.3853C32.8644 48.3853 31.5313 47.833 30.5485 46.8503C29.5655 45.8673 29.0135 44.5342 29.0135 43.1443V34.5332H32.5691C34.7546 34.5332 36.8506 33.665 38.3961 32.1195C39.9416 30.574 40.8098 28.478 40.8098 26.2925V4.57044H14.2175ZM10.4764 7.94083H4.10633V16.1814C4.10633 18.3669 4.97454 20.4629 6.51994 22.0084C7.61645 23.1048 8.99015 23.8605 10.4764 24.2069V7.94083ZM44.5509 24.2069V7.94083H50.9208V16.1814C50.9208 18.3669 50.0527 20.4629 48.5072 22.0084C47.4108 23.1048 46.037 23.8605 44.5509 24.2069Z" fill="#0F6E9B"/>
</svg>
