<svg width="64" height="58" viewBox="0 0 64 58" fill="none" xmlns="http://www.w3.org/2000/svg">
<path d="M55.8639 17.4976V44.7914C55.8639 45.4013 55.6216 45.9863 55.1903 46.4176C54.759 46.8489 54.174 47.0912 53.5641 47.0912H4.34278C3.73283 47.0912 3.14787 46.8489 2.71657 46.4176C2.28527 45.9863 2.04297 45.4013 2.04297 44.7914V10.3074C2.04297 9.69743 2.28527 9.11247 2.71657 8.68117C3.14787 8.24987 3.73283 8.00757 4.34278 8.00757H38.4038" stroke="#0F6E9B" stroke-width="3.6"/>
<path d="M2.04297 38.5129H55.8639" stroke="#0F6E9B" stroke-width="3.6"/>
<path d="M18.7891 56.1581C20.4294 55.3758 21.7331 54.0287 22.4613 52.3635C23.1895 50.6984 23.2935 48.8266 22.7543 47.0911" stroke="#0F6E9B" stroke-width="3.6"/>
<path d="M40.135 56.1581C38.4844 55.3849 37.1681 54.0423 36.4276 52.3768C35.6871 50.7112 35.5721 48.8345 36.1037 47.0911" stroke="#0F6E9B" stroke-width="3.6"/>
<path d="M12.4707 56.1582H45.4347" stroke="#0F6E9B" stroke-width="3.6" stroke-linecap="round"/>
<path d="M18.6569 24.7009C21.2337 24.7009 23.3226 22.612 23.3226 20.0352C23.3226 17.4584 21.2337 15.3695 18.6569 15.3695C16.0801 15.3695 13.9912 17.4584 13.9912 20.0352C13.9912 22.612 16.0801 24.7009 18.6569 24.7009Z" stroke="#0F6E9B" stroke-width="3.6"/>
<path d="M28.1067 38.5131C28.1032 36.009 27.106 33.6086 25.3341 31.8392C23.5622 30.0698 21.1605 29.0759 18.6564 29.0759C16.1558 29.0794 13.7588 30.0752 11.9918 31.8447C10.2249 33.6141 9.23242 36.0125 9.23242 38.5131H28.1067Z" stroke="#0F6E9B" stroke-width="3.6"/>
<path d="M60.2251 17.4975H49.1226L42.4082 22.2425C42.3907 22.2543 42.3704 22.2611 42.3495 22.2625C42.3285 22.2638 42.3075 22.2596 42.2887 22.2501C42.2699 22.2407 42.2539 22.2265 42.2424 22.2089C42.2309 22.1914 42.2242 22.171 42.2231 22.15V17.4975H39.54C39.2396 17.4941 38.9525 17.3732 38.74 17.1608C38.5276 16.9484 38.4068 16.6612 38.4033 16.3608V2.99814C38.4033 2.69667 38.5231 2.40755 38.7362 2.19438C38.9494 1.98121 39.2385 1.86145 39.54 1.86145H60.2251C60.5266 1.86145 60.8157 1.98121 61.0289 2.19438C61.242 2.40755 61.3618 2.69667 61.3618 2.99814V16.3608C61.3584 16.6612 61.2375 16.9484 61.0251 17.1608C60.8126 17.3732 60.5255 17.4941 60.2251 17.4975Z" stroke="#FB5D00" stroke-width="3.6"/>
</svg>
