<svg width="52" height="55" viewBox="0 0 52 55" fill="none" xmlns="http://www.w3.org/2000/svg">
<path d="M20.1821 13.9121H5.88281V17.4234H20.1821V13.9121Z" fill="#0F6E9B"/>
<path d="M44.0354 5.59199C44.922 6.47694 45.4633 7.68531 45.4633 9.03903C45.4633 10.3884 44.9221 11.5968 44.0354 12.4825C43.1505 13.3673 41.9422 13.9085 40.5893 13.9121H35.0006V17.4234H40.5893C42.9011 17.4234 45.0067 16.4803 46.5191 14.9662C48.0333 13.4538 48.9728 11.3473 48.9728 9.03903C48.9728 6.72625 48.0333 4.61981 46.5191 3.10739C45.0067 1.59497 42.9011 0.651057 40.5893 0.654551H5.88281V4.16416H40.5893C41.9422 4.16416 43.1505 4.7063 44.0354 5.59199Z" fill="#0F6E9B"/>
<path d="M43.9697 19.373H35.001V22.8818H43.9697V19.373Z" fill="#0F6E9B"/>
<path d="M43.97 36.142V32.6306H9.26447C7.91064 32.6262 6.70671 32.0851 5.81658 31.2047C4.93153 30.3143 4.38949 29.1061 4.38949 27.7566C4.38949 26.4028 4.93153 25.1945 5.81648 24.3095C6.70661 23.4239 7.91064 22.8818 9.26436 22.8818H20.1827V19.3731H9.26447C6.95529 19.3696 4.84525 20.3126 3.33632 21.825C1.8203 23.3375 0.879883 25.4439 0.879883 27.7566C0.879883 30.0658 1.8203 32.1714 3.33622 33.6838C4.84514 35.198 6.95518 36.142 9.26436 36.142H43.97Z" fill="#0F6E9B"/>
<path d="M48.9881 40.5453C47.4774 39.031 45.3693 38.0889 43.06 38.0907H8.35449V41.5994H43.06C44.4121 41.5994 45.6195 42.1423 46.5071 43.0273C47.3927 43.9156 47.934 45.1213 47.9349 46.4734C47.934 47.8254 47.3929 49.0329 46.5071 49.9196C45.6196 50.8045 44.4121 51.3474 43.06 51.3474H8.35449V54.8586H43.06C45.3692 54.8594 47.4774 53.9155 48.9881 52.4014C50.5041 50.8908 51.4463 48.7834 51.4445 46.4733C51.4463 44.1641 50.5041 42.0559 48.9881 40.5453Z" fill="#0F6E9B"/>
<path d="M27.5931 21.9061L32.6627 24.7653V9.16858H22.5234V24.7653L27.5931 21.9061Z" fill="#FB5D00"/>
</svg>
