<svg width="51" height="45" viewBox="0 0 51 45" fill="none" xmlns="http://www.w3.org/2000/svg">
<path d="M15.626 21.6004L3.90103 21.6004C4.10103 9.92539 6.40103 8.00039 13.576 3.75039C14.401 3.25039 14.676 2.20039 14.176 1.35039C13.676 0.525391 12.626 0.250146 11.776 0.750146C3.32603 5.75015 0.376031 8.80039 0.376032 23.3504L0.376033 36.8252C0.376033 41.1002 3.85103 44.5503 8.10103 44.5503L15.601 44.5503C20.001 44.5503 23.326 41.2252 23.326 36.8252L23.326 29.3252C23.351 24.9251 20.026 21.6004 15.626 21.6004Z" fill="#E4F4FC"/>
<path opacity="0.4" d="M42.6768 21.6004L30.9518 21.6004C31.1518 9.92539 33.4518 8.00039 40.6268 3.75039C41.4518 3.25039 41.7268 2.20039 41.2268 1.35039C40.7268 0.525391 39.6768 0.250146 38.8268 0.750146C30.3769 5.75015 27.4269 8.80039 27.4269 23.3504L27.4269 36.8252C27.4269 41.1002 30.9018 44.5503 35.1518 44.5503L42.6518 44.5503C47.0518 44.5503 50.3768 41.2252 50.3768 36.8252L50.3768 29.3252C50.4018 24.9251 47.0768 21.6004 42.6768 21.6004Z" fill="#AED8EB"/>
</svg>
