<svg width="31" height="32" viewBox="0 0 31 32" fill="none" xmlns="http://www.w3.org/2000/svg">
<path d="M21.5075 8.83994H17.4685V4.7993C17.4685 4.7674 17.4416 4.74072 17.4103 4.74072C15.1182 4.74072 13.2549 6.60505 13.2549 8.89566C13.2549 9.2643 13.3192 9.61539 13.4111 9.95592L15.7857 8.10922C15.9662 7.96682 16.2549 8.00113 16.3987 8.18449C16.5493 8.37741 16.5149 8.65372 16.3224 8.80178L13.7399 10.8133C14.4334 12.1399 15.8128 13.052 17.4104 13.052C19.7033 13.052 21.5658 11.1901 21.5658 8.89665C21.5657 8.86618 21.541 8.83994 21.5075 8.83994Z" fill="#0F6E9B"/>
<path d="M21.5855 5.60436C21.5501 5.56322 21.4989 5.53896 21.4446 5.53766C21.3874 5.53629 21.3379 5.55813 21.3006 5.59754L18.956 8.07064C18.9032 8.12636 18.8886 8.20821 18.9189 8.27876C18.9492 8.34931 19.0186 8.39504 19.0955 8.39504H22.514C22.5145 8.39504 22.515 8.39511 22.5152 8.39504C22.6214 8.39504 22.7074 8.30898 22.7074 8.20287C22.7074 8.18817 22.7058 8.17389 22.7027 8.16018C22.5968 7.21366 22.2109 6.3303 21.5855 5.60436ZM19.5424 8.0107L21.4296 6.01992C21.8848 6.60289 22.1808 7.28384 22.2949 8.0107H19.5424Z" fill="#0F6E9B"/>
<path d="M18.1766 7.72569C18.1997 7.73487 18.2238 7.73934 18.2477 7.73934C18.2995 7.73934 18.3502 7.71843 18.3873 7.67934L20.6374 5.30483C20.675 5.26512 20.6939 5.2112 20.6894 5.15672C20.6849 5.10217 20.6572 5.05216 20.6135 5.01921C19.9249 4.50034 19.1138 4.17867 18.268 4.08901C18.2141 4.08311 18.1597 4.1008 18.1193 4.13722C18.0788 4.17364 18.0557 4.22558 18.0557 4.28006V7.54717C18.0556 7.62591 18.1035 7.69659 18.1766 7.72569ZM18.4399 4.4991C19.0695 4.59813 19.6731 4.83778 20.2068 5.20053L18.4399 7.0651V4.4991Z" fill="#0F6E9B"/>
<path d="M6.59432 4.92603C5.50024 4.92603 4.61334 5.81342 4.61328 6.9075C4.61328 8.00165 5.50024 8.88854 6.59432 8.88854C7.6889 8.88854 8.5758 8.00165 8.5758 6.9075C8.5758 5.81342 7.6889 4.92603 6.59432 4.92603Z" fill="#0F6E9B"/>
<path d="M29.5553 25.561L28.1616 24.2788C27.9301 24.9266 27.4699 25.8925 26.5601 26.9137C25.7847 27.7854 24.8091 28.5504 23.6611 29.1981L25.1198 30.5394C26.4706 31.7854 28.5635 31.6768 29.7867 30.3058C31.009 28.9322 30.9042 26.803 29.5553 25.561Z" fill="#0F6E9B"/>
<path d="M25.9755 26.4904C26.7252 25.6501 27.2549 24.7166 27.5492 23.7201L26.3459 22.6112C25.1227 21.4852 23.8501 21.9997 22.5926 23.078C22.5926 23.078 22.5674 23.097 22.5267 23.1326L22.5258 23.1318C21.9971 22.7323 21.3932 22.5528 20.7534 22.4181C20.1993 22.3014 19.4481 22.1875 19.0899 21.6949C18.8071 21.3061 19.0927 20.7631 19.278 20.398C19.3463 20.2635 19.4182 20.1308 19.4901 19.9982L23.6594 19.9995C24.727 19.9995 25.3475 19.2251 25.3475 18.2685V2.40234C25.3514 1.44731 24.596 0.672852 23.6614 0.672852H1.69238C0.75696 0.672852 0 1.44731 0 2.40234V18.2668C0 19.2242 0.756898 19.9968 1.69238 19.9968H10.1218C10.1218 19.9968 10.4867 23.4587 7.56495 23.4587V25.1906H10.1218H15.2284H17.7857V23.4587C14.7536 23.4587 15.2284 19.9968 15.2284 19.9968L18.8459 19.998C18.5248 20.5952 18.2655 21.2085 18.539 21.8555C18.7885 22.4461 19.5676 22.7078 20.132 22.8522C20.847 23.0349 21.5348 23.1235 22.1498 23.547C22.0392 23.6904 21.9583 23.8097 21.9583 23.8097C21.0743 25.1777 20.5198 26.3076 21.7144 27.407L23.1052 28.6893C23.8007 28.3309 24.9705 27.6202 25.9755 26.4904ZM4.30696 15.8909H3.78015V11.4201H4.30888L4.30696 15.8909ZM12.7888 18.9241C12.2219 18.9241 11.7618 18.4554 11.7618 17.88C11.7618 17.3048 12.222 16.8379 12.7888 16.8379C13.3565 16.8379 13.8162 17.3046 13.8162 17.88C13.8162 18.4544 13.3565 18.9241 12.7888 18.9241ZM8.98623 15.8909L8.9853 11.3997H9.49356V12.8062V12.8129C9.49356 13.8792 10.3392 13.724 10.6252 13.5184C10.8652 13.3458 11.9732 12.5976 11.9732 12.5976L12.6834 12.1165C12.6834 12.1165 13.1925 11.7673 13.1945 11.7655C13.754 11.3545 13.3107 10.7772 13.3107 10.7772L16.1444 8.57182C16.2082 8.52175 16.2197 8.43034 16.1701 8.36699C16.1205 8.30463 16.0292 8.29178 15.9652 8.34124L13.1225 10.5528L13.1216 10.5519C12.9906 10.4533 12.9095 10.4124 12.7533 10.4062C12.5365 10.3967 12.3092 10.4722 12.0784 10.6319L11.9722 10.71L11.0524 11.3449V11.0739C11.0139 8.97714 8.5317 9.04291 8.5317 9.04291H7.51431L6.65696 10.4757L5.79625 9.04384H4.81894C2.3392 9.04384 2.32065 10.832 2.32065 11.504L2.31965 15.89H1.81146V2.51496H23.5416V15.8909H8.98623ZM25.3693 26.113C25.2691 26.2268 25.127 26.2838 24.986 26.2789C24.8775 26.275 24.7703 26.2351 24.6813 26.1576L22.6597 24.3789C22.4581 24.2002 22.4383 23.8926 22.617 23.6892C22.7938 23.4876 23.1013 23.4688 23.3049 23.6465L25.3267 25.4241C25.5281 25.6018 25.548 25.9104 25.3693 26.113Z" fill="#0F6E9B"/>
</svg>
