<svg width="33" height="24" viewBox="0 0 33 24" fill="none" xmlns="http://www.w3.org/2000/svg">
<path d="M13.4957 18.1056H16.2582L13.271 21.2903V18.3304C13.271 18.2064 13.3718 18.1056 13.4957 18.1056ZM17.9215 1.38923V17.0083H13.4957C12.7667 17.0083 12.1737 17.6014 12.1737 18.3304V23.2258H1.45784C1.15476 23.2258 0.90918 22.9801 0.90918 22.6772V1.38923C0.90918 1.08627 1.15476 0.840576 1.45784 0.840576H17.3728C17.6758 0.840576 17.9215 1.08627 17.9215 1.38923ZM10.1724 17.557C10.1724 17.254 9.92682 17.0083 9.62374 17.0083H4.06594C3.76286 17.0083 3.51728 17.254 3.51728 17.557C3.51728 17.86 3.76286 18.1056 4.06594 18.1056H9.62385C9.92682 18.1056 10.1724 17.86 10.1724 17.557ZM12.5051 14.2102C12.5051 13.9072 12.2595 13.6615 11.9564 13.6615H4.06594C3.76286 13.6615 3.51728 13.9072 3.51728 14.2102C3.51728 14.5131 3.76286 14.7588 4.06594 14.7588H11.9564C12.2595 14.7588 12.5051 14.5131 12.5051 14.2102ZM14.2161 10.8634C14.2161 10.5604 13.9705 10.3147 13.6675 10.3147H4.06594C3.76286 10.3147 3.51728 10.5604 3.51728 10.8634C3.51728 11.1663 3.76286 11.412 4.06594 11.412H13.6675C13.9705 11.412 14.2161 11.1663 14.2161 10.8634Z" fill="#0F6E9B"/>
<path d="M29.3225 19.5852H31.2868L29.1628 21.8496V19.745C29.1628 19.6568 29.2345 19.5852 29.3225 19.5852ZM32.4695 7.6992V18.805H29.3225C28.8042 18.805 28.3825 19.2267 28.3825 19.745V23.2258H20.7632C20.5477 23.2258 20.373 23.0511 20.373 22.8357V7.6992C20.373 7.48378 20.5477 7.30908 20.7632 7.30908H32.0793C32.2948 7.30908 32.4695 7.48378 32.4695 7.6992ZM26.9595 19.1951C26.9595 18.9796 26.7849 18.805 26.5694 18.805H22.6176C22.4021 18.805 22.2275 18.9796 22.2275 19.1951C22.2275 19.4105 22.4021 19.5852 22.6176 19.5852H26.5695C26.7849 19.5852 26.9595 19.4105 26.9595 19.1951ZM28.6182 16.8154C28.6182 16.5999 28.4435 16.4252 28.228 16.4252H22.6176C22.4021 16.4252 22.2275 16.5999 22.2275 16.8154C22.2275 17.0308 22.4021 17.2055 22.6176 17.2055H28.228C28.4435 17.2055 28.6182 17.0308 28.6182 16.8154ZM29.8348 14.4356C29.8348 14.2202 29.6602 14.0455 29.4447 14.0455H22.6176C22.4021 14.0455 22.2275 14.2202 22.2275 14.4356C22.2275 14.6511 22.4021 14.8258 22.6176 14.8258H29.4447C29.6602 14.8258 29.8348 14.6511 29.8348 14.4356Z" fill="#0F6E9B"/>
</svg>
