<svg width="36" height="35" viewBox="0 0 36 35" fill="none" xmlns="http://www.w3.org/2000/svg">
<path fill-rule="evenodd" clip-rule="evenodd" d="M35.4272 17.4316C35.4272 26.7832 27.4965 34.3643 17.7136 34.3643C7.93065 34.3643 0 26.7832 0 17.4316C0 8.08001 7.93065 0.499023 17.7136 0.499023C27.4965 0.499023 35.4272 8.08001 35.4272 17.4316ZM17.7136 10.2353C16.6131 10.2353 15.7208 11.0881 15.7208 12.1402C15.7208 12.8416 15.126 13.4101 14.3923 13.4101C13.6586 13.4101 13.0638 12.8416 13.0638 12.1402C13.0638 9.68539 15.1457 7.69539 17.7136 7.69539C20.2816 7.69539 22.3634 9.68539 22.3634 12.1402C22.3634 13.3438 21.8613 14.438 21.0491 15.2372C20.8856 15.3979 20.7297 15.5469 20.5809 15.6889C20.1987 16.054 19.8637 16.3739 19.5698 16.7349C19.1819 17.2113 19.0421 17.5617 19.0421 17.855V19.1249C19.0421 19.8263 18.4473 20.3948 17.7136 20.3948C16.9799 20.3948 16.3851 19.8263 16.3851 19.1249V17.855C16.3851 16.7455 16.9254 15.8474 17.4731 15.1749C17.8782 14.6772 18.3874 14.1912 18.8009 13.797C18.9256 13.678 19.0414 13.5674 19.1431 13.4673C19.4931 13.123 19.7064 12.6567 19.7064 12.1402C19.7064 11.0881 18.8142 10.2353 17.7136 10.2353ZM17.7136 25.8979C18.6919 25.8979 19.485 25.1399 19.485 24.2047C19.485 23.2695 18.6919 22.5114 17.7136 22.5114C16.7353 22.5114 15.9423 23.2695 15.9423 24.2047C15.9423 25.1399 16.7353 25.8979 17.7136 25.8979Z" fill="#1779A8"/>
</svg>
