<svg width="21" height="22" viewBox="0 0 21 22" fill="none" xmlns="http://www.w3.org/2000/svg">
<path d="M20.507 11.294L17.3999 8.18685C16.9984 7.78534 16.3474 7.78534 15.9459 8.18685L15.325 8.80783V1.37436C15.325 0.806569 14.8646 0.346252 14.2969 0.346252H1.2742C0.70641 0.346252 0.246094 0.806569 0.246094 1.37436V17.8242C0.246094 18.392 0.70641 18.8523 1.2742 18.8523H7.10012V20.5656C7.10012 21.1334 7.56044 21.5937 8.12823 21.5937H11.2354C11.5081 21.5937 11.7696 21.4854 11.9624 21.2926L20.5071 12.7479C20.9086 12.3464 20.9086 11.6955 20.507 11.294ZM2.3023 2.40246H13.2688V10.864L7.40129 16.7314C7.38059 16.7521 7.36147 16.7739 7.34276 16.796H2.3023V2.40246ZM10.8095 19.5375H9.15633V17.8843L16.6729 10.3677L18.3261 12.0209L10.8095 19.5375Z" fill="white"/>
</svg>
