<svg width="85" height="66" viewBox="0 0 85 66" fill="none" xmlns="http://www.w3.org/2000/svg">
<path d="M84.4753 36.1608C84.356 26.2892 85.9519 13.0624 78.0519 5.56557C70.4827 -1.61698 54.865 2.76741 45.5978 2.14326C35.5474 1.46564 1.57201 -4.71757 2.21632 12.9392C2.09711 13.0628 2.00024 13.2092 1.97 13.4029C0.616502 22.0345 0.81637 30.7165 1.05525 39.4275C1.20822 44.9984 0.948301 51.8636 3.59787 56.9983C8.09754 65.7198 17.8556 64.752 26.3596 64.457C36.0852 64.1191 45.7745 64.5955 55.4922 64.9378C61.8845 65.1627 70.5835 66.4653 76.5349 63.2547C86.4591 57.9004 84.5919 45.7487 84.4753 36.1608ZM68.8974 60.4259C54.9675 62.0187 40.3899 59.5655 26.3592 60.0906C18.105 60.3992 9.23275 61.7224 6.5731 51.988C3.49136 40.7095 5.68465 28.0047 4.4758 16.2511C5.12318 16.0293 5.68991 15.4932 5.74295 14.7201C6.78787 -0.503679 35.689 5.77815 45.5983 6.56491C53.9647 7.22938 62.275 5.46037 70.6283 6.89758C82.4854 8.93747 79.9703 27.4332 79.8652 36.1608C79.7429 46.2778 82.4976 58.8703 68.8974 60.4259Z" fill="#0F6E9B"/>
<path d="M75.2625 12.549C75.231 12.1861 75.0583 11.821 74.6642 11.5457C69.0745 7.63559 58.3083 10.3391 52.0296 10.8287C39.2735 11.8232 25.9639 12.3334 13.2534 10.8089C11.8271 10.638 11.4677 12.8484 12.6507 13.3722C12.2576 13.4427 11.8876 13.7443 11.8749 14.2089C11.5269 27.0294 11.9442 40.7515 13.1802 53.5172C13.2494 54.2308 13.7789 54.5796 14.3005 54.5691C14.4863 55.0719 14.9396 55.4848 15.6641 55.5413C17.2661 55.6658 19.0114 55.8415 20.7015 55.8008C26.1633 57.1867 33.9617 56.1348 38.0594 56.012C49.5453 55.6706 60.9794 54.4048 72.4705 54.1273C72.8567 54.1181 73.1477 53.9792 73.3927 53.796C73.9187 53.6522 74.3644 53.2288 74.396 52.4955C74.9596 39.4953 73.3401 26.9676 75.9138 14.084C76.0414 13.444 75.7227 12.8852 75.2625 12.549ZM71.4519 50.8852C62.0418 50.9167 52.6327 51.8779 43.245 52.4166C38.251 52.7033 33.2507 52.8532 28.2492 52.8089C24.7734 52.7778 20.4758 51.5032 17.0684 52.3978C16.5942 52.4376 16.1195 52.4793 15.6645 52.5148C15.5777 52.5214 15.5155 52.5582 15.4366 52.5744C16.4697 40.1659 15.7859 26.1532 13.5799 13.9792C13.5444 13.7837 13.4493 13.6514 13.3336 13.5497C33.075 17.2507 53.3086 10.7568 72.8838 13.8354C68.1755 24.4548 70.5998 39.4313 71.4519 50.8852Z" fill="#0F6E9B"/>
<path d="M32.8792 36.4298C31.3973 35.5133 29.3224 35.3138 27.2317 35.3835C28.4177 33.5996 29.0861 31.4721 29.0252 29.27C28.8933 24.5231 24.4545 23.5492 20.7929 25.3862C19.5095 26.03 20.4147 28.0322 21.7524 27.6619C24.1236 27.0048 25.9728 27.1131 25.7936 29.9529C25.6388 32.4057 23.7046 35.0403 21.4618 35.9866C19.8164 36.6809 19.7668 39.7513 21.9321 39.4607C23.8269 39.206 25.7129 39.071 27.6248 39.0666C29.2632 39.0627 30.9371 39.5133 32.5308 39.1017C33.7865 38.7778 33.9316 37.0811 32.8792 36.4298Z" fill="#0F6E9B"/>
<path d="M49.5769 31.434C48.3106 29.7741 46.3102 30.4842 44.4597 30.6503C43.9942 30.6919 43.5252 30.7244 43.0588 30.7616C42.862 29.2841 42.5267 27.7448 41.6133 26.6884C40.7866 25.7325 39.6032 26.7984 39.7373 27.7807C39.8842 28.8594 39.9876 29.928 40.0608 31.0005C38.6074 31.1158 37.1553 31.2442 35.7145 31.427C34.2322 31.615 34.2133 33.5777 35.7145 33.7469C37.1754 33.9122 38.6582 33.9236 40.141 33.8964C40.077 35.0491 39.9127 36.3088 40.8598 37.1408C41.4546 37.6632 42.2265 37.6663 42.8208 37.1408C43.7373 36.3303 43.6374 35.0167 43.4551 33.814C43.5296 33.8127 43.6058 33.8096 43.6804 33.8079C45.6181 33.7732 48.2992 34.4701 49.5769 32.7195C49.8145 32.3943 49.8241 31.7583 49.5769 31.434Z" fill="#0F6E9B"/>
<path d="M65.6619 34.2004C64.3917 33.5311 62.8033 33.813 61.4178 33.9085C61.0246 33.9357 60.6302 33.973 60.237 34.0168C61.1412 31.4514 61.3214 28.5344 60.7836 26.0659C60.4653 24.6032 59.3981 23.0061 57.8189 22.7825C55.6926 22.4823 54.0178 24.1579 52.8169 25.6938C51.9622 26.7865 53.2605 28.1404 54.351 27.2278C54.6591 26.9697 56.5872 25.1866 57.1596 25.6556C57.7798 26.1641 57.7303 27.546 57.7439 28.2535C57.7904 30.697 57.0689 33.5732 55.3569 35.3808C54.1743 36.6295 55.3271 39.0709 57.1316 38.4297C58.7183 37.866 60.3391 37.6639 62.013 37.5627C63.2469 37.4886 64.539 37.6933 65.6619 37.099C66.7542 36.5222 66.7573 34.7777 65.6619 34.2004Z" fill="#0F6E9B"/>
</svg>
