<svg width="85" height="78" viewBox="0 0 85 78" fill="none" xmlns="http://www.w3.org/2000/svg">
<path d="M8.09768 75.8152C8.04269 75.4408 8.0202 75.0623 8.03053 74.684C8.02449 73.4705 8.03731 72.2548 8.03053 71.0414C8.02374 69.4894 8.01472 69.4713 6.56223 69.4577C6.01472 69.4517 5.46644 69.4577 4.91893 69.4653C4.32919 69.4721 3.7387 69.4788 3.14896 69.4713C2.62033 69.4813 2.09236 69.4295 1.5758 69.3167C1.37592 69.2551 1.19481 69.1441 1.04927 68.9939C0.903737 68.8437 0.798477 68.6592 0.743269 68.4575C0.688061 68.2557 0.684695 68.0433 0.733465 67.84C0.782234 67.6366 0.881564 67.4488 1.02225 67.2941C1.31172 66.9408 1.67646 66.6567 2.08982 66.4626C2.50318 66.2684 2.95469 66.1691 3.41137 66.1719C4.70021 66.1644 5.98982 66.1613 7.27942 66.1365C7.86991 66.1259 8.11729 65.8958 8.1271 65.3114C8.09986 63.6436 8.3674 61.9841 8.91742 60.4094C9.0301 59.9691 9.06457 59.5125 9.01924 59.0602C8.97927 53.8257 9.08108 48.5866 8.84654 43.3604C8.55468 36.8438 8.58257 30.3235 8.41515 23.8069C8.33973 21.0037 8.22061 18.2036 8.11352 15.4027C8.09919 15.009 7.92344 14.8484 7.56899 14.9901C6.82314 15.2873 6.06598 15.463 5.4438 14.8483C5.13412 14.513 4.90748 14.1096 4.78213 13.6707C4.65678 13.2317 4.63623 12.7695 4.72211 12.3212C4.83239 11.7261 4.98843 11.1404 5.18889 10.5693C5.64892 8.96828 6.13611 7.3755 6.56522 5.76615C6.79825 4.89134 6.8669 3.96751 7.13387 3.10477C7.3321 2.45792 7.64808 1.85326 8.06597 1.32122C8.27618 1.0451 8.57425 0.848902 8.91098 0.764995C9.24771 0.681087 9.60301 0.714489 9.9182 0.859678C10.6686 1.16134 11.3239 1.61381 11.2576 2.49617C11.0909 4.77143 12.0004 6.7948 12.6346 8.87926C13.1852 10.6892 13.7764 12.4871 14.3269 14.2971C14.4322 14.5844 14.4537 14.8958 14.3888 15.1949C14.3239 15.494 14.1753 15.7685 13.9604 15.9864C13.7667 16.223 13.5038 16.3931 13.2086 16.4728C12.9134 16.5526 12.6007 16.5381 12.3141 16.4313C11.9476 16.3061 11.7168 16.4147 11.7243 16.8009C11.7447 18.0128 11.7726 19.2269 11.8405 20.4373C11.9204 21.8702 12.0555 23.3031 12.1512 24.7398C12.5042 30.0354 12.4906 35.3484 12.7651 40.6447C13.0667 46.4087 13.0215 52.1651 12.9529 57.9253C12.9641 60.4246 12.7368 62.9193 12.2741 65.3755C12.1625 65.923 12.4068 66.2051 13.0109 66.2337C13.6932 66.2629 14.3755 66.2772 15.0577 66.2767C26.8156 66.245 38.572 66.2767 50.3284 66.1304C53.888 66.0868 57.443 65.8603 60.9793 65.4517C62.1116 65.3391 63.2494 65.2912 64.3872 65.3084C65.5871 65.3084 66.7877 65.3167 67.9883 65.3265C69.5185 65.3393 71.0487 65.3521 72.5796 65.3408C73.0325 65.3064 73.4867 65.389 73.8986 65.5807C74.3105 65.7723 74.6662 66.0665 74.9317 66.4351C75.5426 67.2541 75.5909 67.2307 76.3918 66.8929C76.7379 66.742 77.0848 66.6025 77.4257 66.4464C77.4838 66.42 77.5599 66.3257 77.5516 66.2805C77.52 66.1493 77.4808 65.9562 77.3865 65.9139C76.9127 65.6799 76.42 65.4861 75.9136 65.3348C74.8365 64.9673 73.8246 64.431 72.9159 63.7458C72.6722 63.5684 72.4669 63.3434 72.3126 63.0844C72.2223 62.9403 72.1712 62.7751 72.1647 62.6051C72.1581 62.4352 72.1963 62.2664 72.2752 62.1158C72.3542 61.9652 72.4713 61.8379 72.6148 61.7467C72.7583 61.6554 72.9232 61.6033 73.0931 61.5957C74.4605 61.6103 75.8166 61.8456 77.109 62.2925C79.1324 62.9155 81.0404 63.8687 83.1 64.4139C84.1889 64.7028 84.569 66.3793 83.8103 67.2548C83.4557 67.6473 83.0498 67.9902 82.6037 68.2744C81.9799 68.7062 81.3244 69.0904 80.6429 69.4238C78.9302 70.2231 77.2206 71.0437 75.4567 71.7164C73.7342 72.3733 72.6542 71.4705 72.8118 69.6417C72.8752 68.9132 72.8186 68.8288 72.204 68.8273C70.4596 68.8212 68.7153 68.8273 66.9717 68.8273C64.4732 68.96 61.98 69.0535 59.4845 69.2608C55.0351 69.6304 50.569 69.9336 46.0879 69.9026C35.8496 69.8272 25.6082 69.8272 15.3684 69.7941C14.7651 69.7941 14.1542 69.7767 13.5486 69.7767C11.7583 69.7767 11.756 69.7767 11.7522 71.4682C11.7522 72.5301 11.759 73.5927 11.7522 74.6545C11.7598 75.0331 11.7346 75.4116 11.6768 75.7858C11.6153 76.2042 11.3976 76.5837 11.0676 76.8482C10.7375 77.1126 10.3196 77.2423 9.89781 77.2111H9.8782C9.45986 77.2469 9.04352 77.1227 8.7131 76.8637C8.38267 76.6046 8.16276 76.23 8.09768 75.8152ZM26.3676 58.2398C26.3148 57.7119 26.3367 57.1794 26.3194 56.6493C26.3356 56.3461 26.3138 56.0421 26.2545 55.7443C26.1608 55.5528 26.0076 55.3967 25.8179 55.2993C25.6777 55.2416 25.5265 55.2158 25.3752 55.2239C23.7681 55.0572 23.1052 54.2775 23.0833 52.6817C23.0758 52.1538 23.0366 51.6214 23.0343 51.0912C23.0079 46.6907 22.9785 42.291 22.9695 37.8936C22.9695 36.5278 23.0343 35.1628 23.0607 33.7971C23.0628 33.1894 23.2071 32.5907 23.4823 32.049C23.5839 31.8041 23.7468 31.5895 23.9554 31.4259C24.1639 31.2622 24.4111 31.155 24.6731 31.1146C25.195 31.0346 25.704 30.8748 26.2243 30.782C26.882 30.6659 27.3835 30.2986 26.9725 29.4999C26.5023 28.4666 26.3837 27.3077 26.6346 26.2005C26.8126 24.9321 26.6934 23.6251 26.7696 22.3385C26.8106 21.6622 26.9274 20.9926 27.118 20.3423C27.1894 20.0437 27.3643 19.7799 27.6114 19.5977C27.8586 19.4155 28.1623 19.3267 28.4687 19.3468C28.8107 19.3833 29.1313 19.5308 29.3816 19.7666C29.6319 20.0025 29.7981 20.3138 29.8548 20.653C29.9002 21.1816 29.9161 21.7124 29.9023 22.2428C29.9257 24.7466 29.9393 27.2488 29.968 29.7518C29.9785 30.5293 30.0901 30.6115 30.8948 30.7322C31.5668 30.8348 32.238 30.9486 32.9001 31.0972C33.3137 31.181 33.687 31.4017 33.9598 31.7236C34.2326 32.0456 34.389 32.45 34.4038 32.8717C34.4487 33.3245 34.4659 33.7796 34.4551 34.2345C34.4604 36.2066 34.4551 38.1794 34.4551 40.1515C34.4551 41.6688 34.4906 43.1854 34.4438 44.702C34.4069 45.9087 34.2417 47.1153 34.1814 48.322C34.1165 49.604 34.0999 50.8981 34.0796 52.1839C34.1207 52.867 33.984 53.5491 33.6829 54.1636C33.5446 54.4765 33.3209 54.7442 33.0374 54.9357C32.754 55.1273 32.4222 55.235 32.0803 55.2466C31.3262 55.2647 30.563 55.2616 29.8058 55.2903C29.7107 55.2932 29.617 55.315 29.5303 55.3543C29.4436 55.3937 29.3656 55.4498 29.3008 55.5196C29.236 55.5893 29.1857 55.6712 29.1527 55.7605C29.1198 55.8498 29.1049 55.9448 29.109 56.0399C29.0826 56.4924 29.0901 56.9486 29.0758 57.4041C29.0667 57.7058 29.0637 58.0075 29.029 58.3091C28.991 58.6099 28.8643 58.8925 28.6649 59.1208C28.4656 59.3492 28.2027 59.5129 27.9099 59.5912C27.8666 59.5967 27.823 59.5994 27.7794 59.5995C27.4226 59.5728 27.0862 59.4223 26.8285 59.174C26.5707 58.9258 26.4077 58.5954 26.3676 58.2398ZM26.6897 34.3265C26.5764 34.3225 26.4636 34.3429 26.3588 34.3863C26.2541 34.4296 26.1598 34.4949 26.0824 34.5777C26.005 34.6605 25.9463 34.7589 25.9102 34.8664C25.874 34.9738 25.8613 35.0878 25.8729 35.2005C25.8782 36.2563 25.8948 37.3122 25.9483 38.3732C26.06 40.7865 26.1942 43.1907 26.3209 45.601C26.2847 45.601 26.2507 45.6048 26.2161 45.6063C26.2161 46.7375 26.2055 47.8747 26.2161 49.006C26.253 52.0859 25.9053 52.0414 28.1255 51.9962C28.4363 51.9902 28.7975 51.9841 29.2168 51.9864C29.4431 51.9864 29.6693 51.9863 29.8956 51.9645C30.1242 51.9661 30.3442 51.878 30.5085 51.7191C30.6728 51.5602 30.7682 51.3431 30.7741 51.1146C30.7817 51.0392 30.7847 50.9637 30.7884 50.8883C30.9136 48.475 31.072 46.0663 31.1505 43.6553C31.2168 41.6153 31.2063 39.5754 31.2017 37.5339C31.1935 34.1847 31.6301 34.2299 29.2206 34.2752C28.8322 34.2827 28.3699 34.2903 27.8209 34.2835H27.6791C27.3503 34.2835 27.0192 34.2978 26.6904 34.3272L26.6897 34.3265ZM61.882 54.7842C61.831 54.4094 61.8106 54.0311 61.8209 53.653C61.8209 52.6673 61.8443 51.6832 61.8428 50.699C61.8428 49.4207 61.8314 49.417 60.6437 49.3302C60.342 49.3091 60.0351 49.3303 59.7387 49.2843C59.2397 49.2617 58.7673 49.0531 58.4146 48.6995C58.0618 48.3459 57.8543 47.873 57.833 47.374C57.698 46.4019 57.5788 45.4238 57.4951 44.4456C57.2787 41.9637 57.0818 39.4803 56.885 36.9954C56.8312 36.1622 56.9461 35.3268 57.2228 34.5392C57.2856 34.2407 57.442 33.9701 57.6691 33.7666C57.8963 33.5631 58.1825 33.4375 58.4861 33.4079C58.7123 33.3823 58.9385 33.3913 59.1648 33.3514C60.6437 33.0882 60.9219 32.7548 60.9249 31.2692C60.9249 29.9818 60.9039 28.6945 60.9318 27.4079C60.9318 26.9575 61.0046 26.5101 61.1475 26.0829C61.233 25.8515 61.3799 25.6479 61.5725 25.4938C61.7651 25.3396 61.9961 25.2409 62.2406 25.2082C62.4851 25.1755 62.7338 25.21 62.9602 25.308C63.1865 25.4061 63.3819 25.5639 63.5252 25.7646C63.7386 26.154 63.8912 26.5736 63.9778 27.009C64.002 27.1586 64.0056 27.3109 63.9883 27.4615V29.506C63.9883 29.5814 63.983 29.6568 63.9883 29.7322C64.0637 30.6146 63.7621 31.5308 64.2425 32.3717C65.0376 32.5799 65.8431 32.7463 66.6557 32.8702C67.0772 32.8943 67.48 33.0522 67.8056 33.3211C68.1311 33.5899 68.3624 33.9556 68.4657 34.3649C68.9551 36.0241 69.6059 37.6364 69.5328 39.4336C69.4506 41.4735 69.5132 43.5195 69.5109 45.5655C69.5109 46.018 69.5177 46.4743 69.4808 46.923C69.4884 47.2272 69.4359 47.53 69.3262 47.8139C69.2165 48.0978 69.0518 48.3573 68.8416 48.5773C68.6314 48.7974 68.3797 48.9738 68.1012 49.0964C67.8226 49.219 67.5226 49.2855 67.2183 49.2918C66.7658 49.3386 66.3134 49.3136 65.8571 49.3385C65.2538 49.374 65.0275 49.5859 65.0185 50.153C65.0049 51.2141 65.0185 52.2729 65.0117 53.3325C65.0203 53.7859 64.9989 54.2394 64.9476 54.69C64.9046 55.0688 64.7329 55.4214 64.4611 55.6889C64.1893 55.9563 63.8339 56.1223 63.4544 56.159H63.4084C63.0367 56.1344 62.684 55.9855 62.4073 55.7361C62.1305 55.4867 61.945 55.1514 61.882 54.7842ZM60.6806 36.1085C60.1422 36.1085 59.891 36.3951 59.9038 36.9728C59.9212 37.7269 59.9491 38.4811 60.0117 39.2307C60.1565 40.9555 60.3262 42.6794 60.4853 44.4004C60.4921 44.4758 60.5011 44.5512 60.5124 44.6266C60.621 45.3732 60.9483 45.6983 61.6949 45.7119C62.8261 45.7322 63.9574 45.7254 65.0886 45.7119C65.6708 45.7043 65.9385 45.4569 65.9468 44.9192C65.9619 43.9388 65.9506 42.9584 65.9506 41.978H65.9604C65.9604 41.1485 65.9325 40.3189 65.9687 39.4894C65.979 38.5844 65.8215 37.6854 65.5042 36.8378C65.3164 36.2722 65.1655 36.1357 64.5238 36.1236C63.7455 36.1105 62.9662 36.1043 62.1859 36.1048C61.6866 36.1028 61.1851 36.1037 60.6814 36.1078L60.6806 36.1085ZM43.3744 53.3566C43.2375 53.0045 43.1611 52.6317 43.1482 52.2541C43.1195 50.512 43.1256 48.7684 43.1226 47.0248C43.1344 46.4939 43.294 45.9769 43.5833 45.5316C43.9468 44.9155 43.8895 44.8672 43.112 44.8182C42.8103 44.7993 42.5049 44.8182 42.2025 44.7873C40.7206 44.6312 40.0909 43.9849 39.9257 42.46C39.8992 42.2347 39.8858 42.008 39.8858 41.7812C39.8135 39.2084 39.5916 36.642 39.2213 34.095C39.1542 33.4166 39.1238 32.7351 39.1301 32.0535C39.1246 28.792 39.1291 25.5319 39.1437 22.2729C39.1443 21.6697 39.2059 21.0681 39.3277 20.4773C39.3706 20.1726 39.5177 19.892 39.744 19.6834C39.9703 19.4747 40.2617 19.3507 40.569 19.3325C40.7965 19.3295 41.0235 19.3085 41.2477 19.2699C42.4627 18.9404 42.6422 18.6907 42.6633 17.3793C42.6806 16.242 42.7138 15.1048 42.7206 13.9675C42.7173 13.2063 42.884 12.454 43.2085 11.7654C43.343 11.4491 43.5619 11.1759 43.8412 10.9756C44.1205 10.7753 44.4495 10.6556 44.7922 10.6296C45.1328 10.5836 45.4789 10.6552 45.7732 10.8327C46.0675 11.0101 46.2924 11.2828 46.4106 11.6055C46.6618 12.3231 46.7331 13.0915 46.618 13.8431C46.5336 15.2006 46.4446 16.564 46.3692 17.923C46.3711 17.9959 46.3893 18.0674 46.4224 18.1324C46.4555 18.1974 46.5026 18.2542 46.5604 18.2987C46.6182 18.3432 46.6851 18.3742 46.7564 18.3896C46.8277 18.405 46.9015 18.4043 46.9725 18.3876C47.3152 18.2281 47.6661 18.0868 48.0237 17.9645C48.3341 17.8716 48.6613 17.8491 48.9815 17.8987C49.3017 17.9482 49.6068 18.0685 49.8746 18.2508C50.1424 18.4332 50.3662 18.6729 50.5296 18.9527C50.6931 19.2324 50.7921 19.5451 50.8194 19.8679C50.8619 20.3204 50.8745 20.7751 50.8571 21.2292C50.8606 24.4137 50.8606 27.5982 50.8571 30.7827C50.8262 30.7827 50.7968 30.7827 50.7659 30.7827C50.7659 33.966 50.7907 37.15 50.7492 40.3348C50.701 41.2395 50.5891 42.1396 50.4144 43.0286C50.3523 43.364 50.1946 43.6744 49.9604 43.9225C49.7261 44.1705 49.4253 44.3456 49.0939 44.4268C48.1456 44.693 47.1631 44.8178 46.1784 44.7971C45.7764 44.8287 45.6286 44.9984 45.7877 45.3446C46.1162 46.1122 46.2625 46.9454 46.2153 47.779C46.1919 49.2179 46.2281 50.6591 46.2357 52.0995C46.2505 52.4013 46.2429 52.7038 46.213 53.0045C46.1372 53.3384 45.9611 53.6411 45.7084 53.8722C45.4557 54.1032 45.1384 54.2514 44.799 54.2971C44.7764 54.2971 44.753 54.2971 44.7304 54.2971C44.4394 54.281 44.1586 54.1846 43.9192 54.0184C43.6798 53.8522 43.4912 53.6236 43.3744 53.3566ZM46.7055 36.8672C45.36 37.705 44.2162 38.8296 43.3556 40.1606C43.2153 40.3785 42.8028 40.4049 42.8759 40.8091C42.9189 41.0459 43.391 41.2744 43.8179 41.2699C44.2733 41.2984 44.7236 41.1604 45.0849 40.8815C45.4883 40.5399 45.8933 40.1968 46.3217 39.8868C46.6194 39.7267 46.8664 39.4865 47.0346 39.1933C47.2028 38.9 47.2855 38.5655 47.2734 38.2277C47.2394 37.6621 47.2259 37.3619 47.198 37.061C47.1916 36.9889 47.1574 36.922 47.1027 36.8746C47.0479 36.8271 46.9769 36.8029 46.9046 36.8069C46.8341 36.808 46.7647 36.8289 46.7055 36.8672ZM46.5999 31.7662C46.1336 32.1373 45.6901 32.5362 45.2719 32.9607C45.0983 33.1955 44.98 33.4664 44.9257 33.7533C44.9169 33.8248 44.9228 33.8973 44.943 33.9665C44.9632 34.0356 44.9974 34.0998 45.0434 34.1553C45.0882 34.2007 45.1432 34.2348 45.2037 34.255C45.2642 34.2752 45.3287 34.2808 45.3918 34.2714C45.8005 34.0949 46.1829 33.8589 46.5924 33.6824C46.8463 33.5839 47.0567 33.398 47.1857 33.1581C47.3147 32.9182 47.3538 32.6401 47.296 32.374C47.309 32.3205 47.309 32.2646 47.296 32.2111C47.2266 32.0074 47.128 31.8148 47.0034 31.6394C46.9977 31.635 46.9912 31.6317 46.9842 31.6297C46.9772 31.6278 46.9699 31.6272 46.9627 31.6281C46.832 31.6405 46.7069 31.6871 46.5999 31.7631V31.7662ZM46.6572 27.6259C46.1029 28.1184 45.5833 28.6538 45.0622 29.1869C45.0335 29.2164 45.069 29.3325 45.1029 29.3898C45.1369 29.4472 45.204 29.4652 45.2357 29.4871C45.8518 29.0414 46.4664 28.6078 47.0615 28.15C47.1527 28.0746 47.1527 27.8876 47.1965 27.7541C47.0415 27.6923 46.8819 27.6431 46.7191 27.607C46.6972 27.6055 46.6755 27.6119 46.658 27.6251L46.6572 27.6259ZM45.71 24.1492L45.8111 23.8989C45.6806 23.92 45.4853 23.9027 45.71 24.1462V24.1492ZM42.241 22.5082C42.1811 22.6567 42.1457 22.8138 42.1361 22.9736C42.1557 23.1674 42.1625 23.3966 42.2063 23.6183C42.2499 23.7606 42.3072 23.8982 42.3774 24.0293C42.4689 23.9248 42.5451 23.8077 42.6037 23.6817C42.7187 23.3289 42.8065 22.9679 42.8661 22.6017C42.8782 22.5195 42.6934 22.3476 42.5796 22.325C42.5705 22.3241 42.5614 22.3241 42.5524 22.325C42.4906 22.3323 42.431 22.3523 42.3773 22.3837C42.3236 22.4151 42.2769 22.4572 42.2402 22.5075L42.241 22.5082ZM47.2869 22.828C47.298 22.7262 47.2848 22.6232 47.2483 22.5275C47.2119 22.4318 47.1533 22.3461 47.0773 22.2774C46.9909 22.2374 46.8956 22.2203 46.8006 22.2277C46.7057 22.2351 46.6142 22.2668 46.5351 22.3197C46.3312 22.5162 46.1685 22.7513 46.0564 23.0113C45.9443 23.2712 45.885 23.5509 45.882 23.834C46.2008 23.8818 46.5256 23.8034 46.7874 23.6154C47.0493 23.4274 47.2274 23.1446 47.284 22.8272L47.2869 22.828Z" fill="#0F6E9B"/>
</svg>
