<svg width="72" height="71" viewBox="0 0 72 71" fill="none" xmlns="http://www.w3.org/2000/svg">
<path d="M71.3763 11.9434C66.8024 15.9104 62.1343 19.8589 57.5721 23.9364C52.7274 28.2718 47.8709 32.6011 43.2205 37.1514C36.8452 43.3843 30.6348 49.8015 24.3832 56.1879C21.381 59.2583 18.4965 62.4208 15.4766 65.5035C14.2986 66.7434 13.0483 67.9063 11.7327 68.9853C9.76659 70.5635 8.14187 70.4529 6.34056 68.6721C4.53924 66.8913 2.80856 64.9876 1.1603 63.2989C1.11909 60.8426 2.2199 59.3258 3.46787 57.8766C11.7092 48.3707 19.7621 38.7173 28.1918 29.4079C35.4206 21.3941 43.0026 13.6383 51.2498 6.66236C52.8157 5.33595 54.3227 3.87444 56.0651 2.85506C57.6903 1.97578 59.4324 1.35484 61.2336 1.01283C62.2293 0.839907 63.2507 1.07058 64.0886 1.65761C65.9624 3.12497 67.7024 4.76948 69.2866 6.57025C70.6177 8.01561 71.3658 9.93914 71.3763 11.9434ZM6.75262 61.5611C8.33025 64.0727 9.10728 64.5271 10.626 63.4033C12.3905 62.0622 14.0589 60.5886 15.6179 58.9942C24.0712 50.3971 32.4243 41.757 40.9305 33.2336C45.1454 29.0026 49.6251 25.0479 53.94 20.9213C57.6486 17.3719 61.2925 13.7488 65.2248 9.9047L61.7458 6.28163C59.7941 6.54628 57.9557 7.38794 56.4478 8.70724C53.0394 11.8759 49.5486 14.8726 46.2992 18.2009C38.0579 26.7243 29.9166 35.3951 21.7459 43.9923C21.3927 44.3607 21.0749 44.7721 20.7511 45.1774C19.044 47.3267 17.4075 49.5497 15.6179 51.6253C12.704 54.9966 9.69595 58.2758 6.75262 61.5611Z" fill="#0F6E9B"/>
<path d="M61.3754 70.4342C61.6462 70.4895 60.8221 70.3421 59.998 70.164C54.7 68.9973 52.8103 66.4796 53.3755 60.9528C53.6545 59.061 54.2524 57.2356 55.1415 55.5612C56.1657 53.4549 57.9258 52.6751 60.2334 53.3505C61.5167 53.719 62.8648 53.8295 64.1834 54.0874C69.9523 55.1805 72.6013 61.002 70.1524 66.5287C69.034 68.985 65.0899 70.8887 61.3754 70.4342ZM59.6565 57.7842C58.6759 59 58.1714 60.5571 58.2437 62.1442C58.2437 65.4725 60.3276 66.891 63.3239 65.6137C63.9437 65.3422 64.4819 64.9012 64.8817 64.3374C65.2815 63.7736 65.5281 63.1077 65.5956 62.41C65.6631 61.7122 65.5489 61.0084 65.2652 60.3726C64.9814 59.7369 64.5385 59.1927 63.9832 58.7974C62.6764 57.9807 61.3224 57.3175 59.6565 57.7842Z" fill="#0F6E9B"/>
<path d="M17.5019 13.5584C13.3813 16.7639 9.3489 16.8867 5.19292 15.026C4.11912 14.5398 3.15615 13.822 2.36732 12.9197C1.69461 12.1323 1.20485 11.1938 0.936055 10.1771C0.667258 9.1603 0.626647 8.09259 0.817375 7.0568C1.0081 6.02101 1.42504 5.04499 2.03584 4.20447C2.64663 3.36395 3.43486 2.68154 4.33935 2.21018C5.76536 1.43264 7.32902 0.968266 8.93379 0.845749C10.5386 0.723232 12.1504 0.945167 13.6697 1.49785C16.5542 2.44967 18.9677 6.63156 18.5203 9.93531C18.2694 11.1682 17.929 12.3794 17.5019 13.5584ZM13.8228 9.19841C12.8573 7.74304 12.4158 6.42277 11.5446 5.93151C10.6734 5.44024 9.30769 5.55692 8.18922 5.69201C7.87821 5.78148 7.58814 5.93666 7.337 6.14793C7.08587 6.3592 6.87904 6.62205 6.72933 6.92017C6.37843 7.60937 6.24636 8.39699 6.35215 9.16953C6.45795 9.94206 6.79614 10.6596 7.318 11.2187C7.76332 11.6137 8.3113 11.8615 8.89211 11.9304C9.47291 11.9993 10.0602 11.8862 10.5792 11.6056C11.574 11.0898 12.4158 10.2485 13.8228 9.19841Z" fill="#0F6E9B"/>
<path d="M6.75293 61.561C9.69626 58.2757 12.7043 54.9965 15.6182 51.6252C17.3842 49.5496 19.0443 47.3266 20.7514 45.1773C21.0752 44.772 21.393 44.3606 21.7462 43.9922C29.9169 35.395 38.0405 26.7242 46.2995 18.2008C49.5489 14.8725 53.0397 11.8758 56.4363 8.70101C57.9443 7.3817 59.7826 6.54004 61.7343 6.27539L65.2133 9.89846C61.2869 13.718 57.6431 17.3657 53.9345 20.915C49.6195 25.0417 45.1398 28.9963 40.925 33.2273C32.4246 41.7508 24.0715 50.4216 15.6123 58.988C14.0533 60.5823 12.385 62.0559 10.6205 63.3971C9.13114 64.527 8.34233 64.0726 6.75293 61.561Z" fill="white"/>
<path d="M59.6569 57.7844C61.3052 57.3054 62.6768 57.9809 63.9836 58.7976C64.539 59.1929 64.9818 59.737 65.2656 60.3728C65.5494 61.0086 65.6635 61.7124 65.596 62.4102C65.5285 63.1079 65.2819 63.7738 64.8821 64.3376C64.4823 64.9014 63.9442 65.3423 63.3243 65.6139C60.328 66.8912 58.25 65.4726 58.2441 62.1443C58.1718 60.5572 58.6763 59.0001 59.6569 57.7844Z" fill="white"/>
<path d="M13.8216 9.19832C12.4146 10.2484 11.5729 11.0897 10.5721 11.5687C10.0532 11.8493 9.46584 11.9624 8.88503 11.8935C8.30422 11.8246 7.75624 11.5768 7.31092 11.1818C6.78906 10.6227 6.45087 9.90512 6.34507 9.13259C6.23928 8.36005 6.37135 7.57243 6.72225 6.88324C6.87196 6.58511 7.07879 6.32226 7.32992 6.11099C7.58106 5.89972 7.87113 5.74454 8.18214 5.65508C9.30061 5.51998 10.631 5.37874 11.5375 5.89457C12.4441 6.41039 12.8561 7.74295 13.8216 9.19832Z" fill="white"/>
</svg>
