<svg width="47" height="47" viewBox="0 0 47 47" fill="none" xmlns="http://www.w3.org/2000/svg">
<path d="M1.45211 0.105591C0.939838 0.105591 0.524414 0.521015 0.524414 1.03329V4.74409C0.524414 5.25637 0.939838 5.67179 1.45211 5.67179H4.24431C4.46751 13.5992 9.47338 20.5115 16.7183 23.2981C9.47357 26.0847 4.46751 32.997 4.24431 40.9244H1.45211C0.939838 40.9244 0.524414 41.3398 0.524414 41.8521V45.5629C0.524414 46.0752 0.939838 46.4906 1.45211 46.4906H45.9817C46.494 46.4906 46.9094 46.0752 46.9094 45.5629V41.8521C46.9094 41.3398 46.494 40.9244 45.9817 40.9244H43.2027C42.9795 32.997 37.9729 26.0847 30.7279 23.2981C37.9729 20.5115 42.9795 13.5992 43.2027 5.67179H45.9817C46.494 5.67179 46.9094 5.25637 46.9094 4.74409V1.03329C46.9094 0.521015 46.494 0.105591 45.9817 0.105591H1.45211ZM2.37981 1.96099H45.054V3.81639H2.37981V1.96099ZM6.10305 5.67179H41.344C41.0924 13.7888 35.3234 20.7028 27.3335 22.3715C26.8236 22.4218 26.451 22.876 26.5013 23.3859C26.542 23.7968 26.849 24.1314 27.255 24.2069C35.2855 25.8461 41.0913 32.7807 41.344 40.9244H34.7649C34.3554 37.4357 32.3236 34.345 29.2831 32.5859C25.8388 30.5972 21.5951 30.5972 18.1507 32.5859C15.1118 34.3459 13.0812 37.4364 12.6726 40.9244H6.10305C6.35575 32.7809 12.1607 25.8463 20.1913 24.2069C20.6952 24.1139 21.0283 23.63 20.9353 23.1261C20.8602 22.719 20.5245 22.411 20.1124 22.371C12.1229 20.7024 6.35464 13.7888 6.10305 5.67179ZM17.7796 12.1698C17.7796 14.2911 18.9112 16.2511 20.7483 17.3116C22.5853 18.3722 24.8485 18.3722 26.6856 17.3116C28.5226 16.2511 29.6542 14.2911 29.6542 12.1698H17.7796ZM2.37981 42.7798H45.054V44.6352H2.37981V42.7798Z" fill="white"/>
</svg>
