<svg width="86" height="86" viewBox="0 0 86 86" fill="none" xmlns="http://www.w3.org/2000/svg">
<circle cx="42.9702" cy="43.3304" r="42.3491" fill="#FB5D00"/>
<path d="M22.9697 33.3303H17.9697V63.3303C17.9697 66.0878 20.2122 68.3303 22.9697 68.3303H52.9697V63.3303H22.9697V33.3303Z" fill="white"/>
<path d="M62.9697 18.3303H32.9697C31.6436 18.3303 30.3719 18.8571 29.4342 19.7948C28.4965 20.7325 27.9697 22.0042 27.9697 23.3303V53.3303C27.9697 54.6564 28.4965 55.9282 29.4342 56.8659C30.3719 57.8035 31.6436 58.3303 32.9697 58.3303H62.9697C64.2958 58.3303 65.5676 57.8035 66.5053 56.8659C67.4429 55.9282 67.9697 54.6564 67.9697 53.3303V23.3303C67.9697 22.0042 67.4429 20.7325 66.5053 19.7948C65.5676 18.8571 64.2958 18.3303 62.9697 18.3303ZM40.4697 48.3303V28.3303L57.9697 38.3303L40.4697 48.3303Z" fill="white"/>
</svg>
